<?xml version="1.0" standalone="no"?>
<!DOCTYPE svg PUBLIC "-//W3C//DTD SVG 20010904//EN"
 "http://www.w3.org/TR/2001/REC-SVG-20010904/DTD/svg10.dtd">
<svg version="1.0" xmlns="http://www.w3.org/2000/svg"
 width="530.000000pt" height="530.000000pt" viewBox="0 0 530.000000 530.000000"
 preserveAspectRatio="xMidYMid meet">
<metadata>
Created by potrace 1.14, written by Peter Selinger 2001-2017
</metadata>
<g transform="translate(0.000000,530.000000) scale(0.100000,-0.100000)"
fill="#000000" stroke="none">
<path d="M4309 5266 c-2 -2 -26 -7 -54 -10 -27 -3 -57 -8 -65 -9 -8 -2 -34 -7
-58 -12 -28 -5 -40 -11 -34 -17 6 -6 17 -6 28 0 11 5 55 13 99 16 73 6 107 17
94 31 -3 3 -8 3 -10 1z"/>
<path d="M4330 5260 c0 -5 5 -10 11 -10 5 0 7 5 4 10 -3 6 -8 10 -11 10 -2 0
-4 -4 -4 -10z"/>
<path d="M4400 5260 c0 -5 7 -10 15 -10 8 0 15 5 15 10 0 6 -7 10 -15 10 -8 0
-15 -4 -15 -10z"/>
<path d="M3945 5201 c-3 -6 -18 -11 -33 -11 -15 0 -34 -5 -42 -10 -11 -7 -4
-9 25 -9 51 1 86 11 86 24 0 14 -28 18 -36 6z"/>
<path d="M3160 5121 c-42 -9 -89 -22 -105 -28 -17 -7 -59 -17 -95 -23 -35 -7
-87 -20 -115 -31 -27 -10 -64 -19 -82 -19 -33 0 -83 -18 -83 -30 0 -4 -32 -12
-71 -19 -40 -6 -101 -21 -136 -32 -75 -24 -102 -15 -58 20 17 13 25 26 21 36
-3 9 -2 14 3 11 18 -11 74 7 78 26 6 19 12 21 56 18 23 -1 27 2 27 24 0 32
-28 48 -66 37 -16 -5 -65 -25 -108 -45 -43 -20 -85 -36 -92 -36 -7 0 -28 -14
-46 -30 -18 -17 -44 -33 -58 -37 -14 -3 -30 -10 -36 -15 -6 -4 -35 -15 -63
-24 -55 -16 -84 -11 -55 10 34 25 -18 116 -58 101 -14 -6 -98 52 -98 67 0 4
-27 8 -60 8 -33 0 -60 -4 -60 -10 0 -5 -3 -9 -7 -8 -13 5 -123 -53 -182 -94
-30 -21 -63 -38 -73 -38 -10 0 -18 -4 -18 -8 0 -4 -37 -26 -82 -47 -45 -22
-89 -45 -98 -52 -57 -46 -116 -84 -190 -123 -69 -37 -86 -51 -88 -71 -2 -19 3
-28 23 -37 14 -6 25 -8 25 -4 0 8 57 42 71 42 5 0 33 16 62 35 28 19 60 35 69
35 10 0 18 7 18 15 0 8 -4 15 -10 15 -25 0 -5 18 64 58 41 24 77 50 80 58 3 8
11 14 18 13 29 -4 78 15 99 37 12 13 27 24 32 24 5 0 37 17 71 37 59 36 64 38
144 35 89 -2 135 -15 97 -27 -11 -4 -27 -10 -37 -15 -9 -5 -39 -12 -67 -16
-36 -5 -56 -13 -66 -28 -22 -30 -19 -43 14 -57 17 -7 32 -22 35 -32 4 -16 11
-18 38 -14 18 3 43 8 56 12 17 6 22 3 22 -9 0 -9 -4 -16 -10 -16 -5 0 -10 -7
-10 -16 0 -12 9 -15 43 -12 l42 3 3 -50 c2 -28 7 -54 13 -59 18 -19 9 -28 -23
-23 -44 7 -156 -19 -215 -49 -27 -13 -56 -24 -65 -24 -9 0 -20 -4 -23 -10 -10
-15 -23 -12 -28 8 -4 14 -5 13 -6 -4 -1 -24 -26 -38 -93 -53 -70 -16 -88 -14
-88 9 0 11 8 27 18 36 58 53 99 84 110 84 6 0 12 4 12 10 0 5 7 7 16 3 9 -3
21 3 30 16 8 11 21 21 27 21 7 0 6 -4 -3 -10 -8 -5 -12 -11 -10 -14 9 -8 68
-14 75 -8 4 4 25 11 48 17 39 9 42 12 44 47 2 32 -1 39 -21 44 -23 6 -64 -9
-124 -46 -18 -11 -36 -20 -40 -21 -10 -2 -53 -19 -72 -29 -94 -46 -180 -95
-180 -101 0 -14 26 -10 39 5 13 16 51 28 51 17 0 -4 -11 -18 -24 -30 -26 -25
-29 -67 -5 -81 11 -7 10 -12 -5 -29 -17 -19 -17 -19 6 -14 12 3 28 9 33 13 6
3 38 15 73 26 34 10 62 22 62 26 0 19 21 5 31 -19 12 -32 12 -32 -106 -73 -49
-17 -97 -34 -105 -38 -8 -3 -23 -6 -33 -7 -9 -1 -27 -11 -38 -21 -12 -11 -23
-17 -25 -15 -3 1 -18 -2 -34 -9 -23 -10 -33 -10 -44 -1 -11 10 -16 8 -21 -8
-3 -12 -25 -27 -53 -37 -26 -10 -64 -28 -84 -41 -21 -13 -44 -23 -51 -23 -8 0
-26 -9 -40 -20 -32 -25 -37 -25 -37 1 0 19 -1 19 -22 5 -33 -23 -38 -20 -38
20 0 27 7 43 31 65 17 16 34 29 38 29 4 0 26 18 49 40 22 22 51 40 62 40 12 0
34 7 51 15 16 9 50 17 76 19 26 2 49 9 51 15 2 6 11 18 20 27 11 12 12 18 3
23 -14 9 -3 20 47 45 17 9 32 21 32 26 0 14 -16 12 -32 -2 -19 -18 -102 -58
-121 -58 -22 0 -67 -21 -67 -32 0 -4 -7 -8 -17 -8 -11 0 -6 9 18 33 19 18 36
33 39 33 8 -1 84 47 105 67 11 10 50 36 86 58 37 21 69 45 72 52 8 21 -15 60
-37 63 -27 4 -51 -7 -36 -16 16 -10 -14 -57 -41 -65 -11 -4 -34 -20 -51 -36
-18 -16 -46 -36 -63 -44 -49 -25 -139 -86 -155 -105 -26 -31 -160 -120 -184
-122 -26 -2 -32 -8 -34 -32 -4 -30 -42 -73 -91 -102 -17 -10 -31 -23 -31 -28
0 -11 -80 -86 -93 -86 -15 0 -164 -150 -183 -185 -10 -19 -31 -39 -46 -46 -42
-17 -140 -96 -155 -125 -19 -38 -16 -82 8 -112 l20 -26 -50 -46 c-65 -57 -75
-94 -36 -136 20 -21 25 -35 20 -54 -3 -14 -9 -51 -12 -83 -4 -46 -12 -64 -35
-89 -40 -43 -50 -73 -39 -113 10 -36 4 -51 -46 -109 -18 -22 -33 -43 -33 -48
0 -5 -9 -18 -20 -30 -26 -29 -27 -87 0 -115 11 -12 33 -30 50 -39 22 -14 30
-26 30 -47 0 -16 9 -42 21 -58 18 -25 19 -34 10 -61 -14 -40 -15 -37 14 -48
14 -5 30 -21 37 -34 10 -23 65 -52 76 -41 3 3 -5 16 -18 30 -19 20 -21 27 -10
40 7 8 21 15 31 15 10 0 48 12 84 26 51 21 77 25 117 22 31 -3 60 0 75 7 27
14 62 9 70 -11 3 -7 -5 -27 -16 -43 -12 -16 -21 -40 -21 -52 0 -16 -21 -44
-65 -85 -57 -53 -65 -66 -65 -97 0 -49 24 -61 107 -53 35 3 71 10 81 15 23 12
130 31 173 31 22 0 46 -10 68 -29 32 -27 34 -30 18 -45 -21 -21 -36 -75 -31
-112 2 -16 1 -41 -2 -56 -6 -28 -6 -28 -144 -91 -25 -11 -52 -24 -60 -28 -8
-5 -48 -25 -89 -45 -74 -37 -126 -83 -159 -139 -63 -111 -85 -145 -93 -145
-11 0 -22 -64 -14 -89 3 -12 16 -21 33 -23 l27 -3 -38 -41 c-20 -23 -37 -46
-37 -51 0 -4 -9 -15 -21 -23 -28 -20 -49 -62 -49 -98 0 -32 30 -52 76 -52 l26
0 -27 -32 c-15 -18 -53 -61 -86 -95 -58 -61 -69 -87 -53 -127 12 -30 94 -12
204 45 40 21 43 21 71 5 16 -9 39 -19 51 -21 32 -6 51 -30 44 -52 -7 -22 -60
-95 -126 -174 -40 -46 -75 -85 -230 -247 -55 -57 -80 -97 -80 -127 0 -27 0
-28 53 -21 28 4 56 11 61 17 6 5 24 9 42 9 19 0 34 6 38 15 3 8 13 15 22 15
12 0 15 -5 9 -22 -29 -94 -29 -107 -5 -140 l23 -31 -30 -26 c-17 -14 -42 -36
-57 -48 -17 -15 -26 -33 -26 -53 0 -27 3 -30 30 -30 37 0 130 43 168 78 14 13
73 17 70 5 -1 -5 4 -25 12 -46 15 -40 35 -47 56 -19 18 23 17 52 -1 52 -8 0
-15 4 -15 8 0 15 24 32 43 32 11 0 35 16 54 35 19 19 40 35 48 35 7 0 26 15
42 34 34 41 83 67 111 59 13 -3 46 6 80 21 103 48 116 54 167 70 91 28 218 46
323 46 56 0 102 -4 102 -9 0 -29 -176 -114 -355 -171 -38 -13 -84 -29 -102
-36 -17 -8 -36 -14 -42 -14 -19 0 -168 -95 -188 -120 -15 -19 -17 -62 -2 -77
5 -5 13 -32 17 -59 10 -66 31 -68 103 -12 30 23 60 48 67 55 7 7 21 13 31 13
35 0 90 36 126 83 20 26 40 47 45 47 6 0 10 7 10 17 0 19 75 93 94 93 8 0 19
7 26 15 13 16 80 21 80 7 0 -11 -56 -52 -70 -52 -9 0 -24 -45 -22 -67 1 -5 11
-11 24 -14 17 -4 34 4 62 28 22 18 43 33 48 33 4 0 8 7 8 15 0 15 57 51 75 47
6 -1 28 14 50 33 32 28 41 32 48 20 13 -24 25 -18 37 19 13 42 30 56 105 94
33 17 73 45 89 61 17 17 35 31 40 31 11 0 77 55 129 107 20 21 26 34 22 52 -6
24 22 61 46 61 7 0 26 11 43 24 17 13 76 45 131 71 56 27 110 61 123 77 13 15
31 28 41 28 9 0 21 4 27 8 14 13 95 34 102 28 7 -8 -21 -30 -68 -55 -19 -10
-81 -43 -138 -73 -56 -29 -116 -66 -132 -80 -34 -30 -40 -71 -13 -87 17 -9 47
6 93 46 8 7 28 24 44 38 16 14 34 25 41 25 7 0 18 7 25 15 7 8 19 15 27 15 25
0 144 62 157 82 6 10 19 18 28 18 9 0 27 11 40 25 14 14 39 27 63 31 22 3 43
8 48 11 11 7 8 -11 -8 -43 -8 -17 -28 -40 -45 -53 -17 -12 -36 -33 -42 -46 -6
-13 -24 -28 -39 -34 -24 -8 -29 -16 -29 -43 0 -19 7 -44 16 -57 16 -22 16 -25
0 -51 -15 -27 -23 -100 -10 -100 3 0 16 12 28 27 l21 27 5 -29 c4 -21 12 -31
27 -33 25 -4 47 30 58 91 5 25 17 45 36 59 15 12 35 36 44 54 11 23 20 31 31
27 12 -4 15 0 12 18 -2 16 -9 24 -21 23 -9 -1 -17 2 -17 8 0 14 60 36 118 44
42 5 58 3 85 -14 37 -22 51 -18 59 14 7 28 -7 51 -45 75 -18 10 -26 19 -19 19
6 0 12 9 12 21 0 11 5 29 10 40 15 26 -13 26 -42 -1 -24 -22 -41 -22 -46 2 -3
17 62 66 95 71 12 2 31 11 42 21 18 16 25 17 73 6 29 -7 54 -12 56 -12 10 7
-2 18 -27 25 -17 4 -31 11 -31 15 0 9 150 72 173 72 22 0 22 -4 -8 -48 -35
-51 -33 -70 9 -77 45 -9 171 18 237 49 58 28 69 27 69 -11 0 -24 2 -25 43 -21
23 3 62 14 87 25 25 11 72 30 105 43 33 13 65 27 70 31 20 14 167 49 209 49
24 0 62 7 85 15 22 8 41 12 41 9 0 -2 8 0 19 5 10 6 56 12 102 15 88 5 192 21
209 31 20 13 10 46 -20 63 -29 16 -39 37 -22 44 4 2 29 30 56 63 l48 60 -5 70
c-5 62 -2 75 20 115 14 25 33 53 41 63 8 9 12 20 9 23 -6 6 -16 -4 -78 -79
-13 -16 -18 -18 -19 -7 0 9 15 33 32 55 35 41 49 65 100 160 28 54 32 72 37
170 6 107 13 131 52 180 40 52 121 192 140 243 59 160 53 224 -36 384 -22 40
-25 50 -15 70 15 27 120 128 136 128 13 0 58 47 73 77 6 12 8 29 5 38 -6 15
-16 15 -61 -2 -17 -6 -16 8 3 87 10 46 22 71 40 85 24 19 27 30 34 120 6 87 6
188 0 220 -1 6 -2 24 -1 42 1 23 5 31 14 27 18 -7 40 20 35 43 -2 11 -12 17
-25 16 -17 -2 -22 5 -27 35 -11 70 -8 99 14 105 16 4 20 14 20 50 0 35 -8 56
-37 98 -29 43 -37 66 -41 113 -4 48 -1 62 12 72 34 24 33 154 -1 154 -13 0
-14 -7 -9 -39 5 -32 1 -45 -24 -80 -17 -22 -38 -41 -48 -41 -10 0 -23 -5 -29
-11 -19 -19 -46 -3 -37 23 4 13 10 55 13 93 l6 70 52 0 c62 -1 56 13 -10 23
-43 6 -49 11 -69 52 -17 32 -31 46 -52 52 -35 9 -78 48 -72 64 13 35 -58 41
-94 9 -20 -18 -65 -12 -78 10 -8 14 -114 37 -135 29 -7 -2 -21 4 -31 14 -19
22 -5 22 -251 -3 -197 -19 -465 -28 -445 -15 8 5 27 10 41 10 15 0 30 7 33 16
4 11 13 14 27 11 12 -3 29 -2 38 3 26 14 55 23 65 21 5 -1 12 3 16 9 4 6 26
14 49 17 40 5 42 5 39 -18 -2 -13 1 -26 7 -29 8 -4 17 15 31 68 2 7 20 12 44
12 38 0 52 -11 30 -25 -5 -3 -10 -16 -10 -28 0 -19 3 -18 23 10 22 33 51 36
69 9 5 -7 8 -4 8 7 0 9 5 17 10 17 6 0 10 -5 10 -12 0 -6 9 -2 21 10 28 31 22
66 -13 70 -20 2 -28 9 -28 23 0 28 -16 15 -23 -19 -7 -33 -51 -62 -68 -45 -8
8 -8 13 0 17 16 10 14 26 -3 26 -8 0 -17 6 -20 13 -4 8 -10 5 -22 -10 -19 -27
-34 -28 -75 -7 -59 30 -160 44 -311 44 -126 0 -148 2 -148 15 0 19 -24 19 -53
1 -15 -10 -66 -17 -152 -21 -71 -3 -153 -9 -182 -12 -49 -5 -53 -4 -64 21 -14
30 -9 29 -109 7z m610 -63 c25 -8 35 -8 38 1 9 27 320 2 330 -27 4 -13 -81
-56 -108 -54 -25 1 -143 -29 -172 -44 -36 -19 -38 -18 -38 10 0 16 -7 26 -21
29 -25 7 -88 -3 -95 -14 -3 -5 8 -6 24 -3 34 7 72 -10 72 -31 0 -8 -4 -15 -10
-15 -5 0 -10 -8 -10 -18 0 -11 -11 -32 -25 -48 -17 -19 -21 -32 -14 -39 6 -6
68 -10 147 -11 157 -1 215 -8 243 -32 26 -22 24 -35 -3 -29 -48 12 -207 29
-283 31 -44 1 -85 5 -91 9 -6 3 -27 7 -47 9 -21 1 -37 6 -37 11 0 5 -20 7 -45
5 -25 -3 -45 -3 -45 0 0 4 12 16 28 28 38 31 21 40 -45 26 -31 -6 -58 -10 -61
-8 -2 3 11 13 30 23 l33 18 -28 3 c-16 2 -37 -5 -53 -17 -15 -12 -33 -21 -40
-21 -7 0 -25 -5 -41 -12 -15 -6 -30 -12 -33 -13 -3 0 -15 -5 -28 -9 -39 -13
-35 -1 10 30 24 16 45 31 48 34 15 16 63 41 68 36 3 -3 13 1 23 10 13 12 28
15 51 10 49 -10 81 -7 90 7 4 6 3 14 -2 15 -12 5 -13 52 -1 52 5 0 12 7 15 16
3 8 2 12 -4 9 -12 -7 -13 5 -2 21 16 24 56 25 132 2z m-222 -29 c-49 -43 -79
-57 -137 -65 -28 -4 -54 -11 -57 -15 -3 -5 -22 -9 -43 -9 -21 0 -56 -7 -77
-16 -22 -9 -70 -18 -109 -19 -83 -3 -125 14 -125 49 0 27 41 43 141 52 35 4
69 12 75 20 12 15 101 26 236 28 53 1 100 5 104 8 4 4 11 5 16 2 5 -4 -5 -19
-24 -35z m-1518 -19 c0 -5 -5 -10 -11 -10 -5 0 -7 5 -4 10 3 6 8 10 11 10 2 0
4 -4 4 -10z m370 -25 c-27 -29 -37 -27 -20 4 6 12 18 21 27 21 13 0 12 -5 -7
-25z m550 10 c-3 -5 -11 -10 -18 -12 -25 -3 -26 -13 -1 -13 20 0 28 -8 38 -36
7 -19 11 -38 8 -41 -3 -2 -32 -10 -64 -17 -78 -16 -174 -11 -189 9 -15 20 -27
19 -49 -5 -19 -21 -75 -28 -75 -10 0 6 -4 10 -10 10 -5 0 -10 -6 -10 -14 0
-14 -29 -26 -67 -26 -12 0 -36 -8 -55 -17 -68 -34 -68 -34 -68 -18 0 8 4 15 9
15 5 0 13 17 18 38 5 21 15 37 23 37 8 0 26 8 39 17 15 11 34 15 48 12 16 -4
31 0 44 12 16 14 22 15 28 6 6 -10 11 -9 21 3 10 11 16 13 26 4 11 -9 15 -7
20 5 3 9 17 16 31 16 13 0 34 5 46 12 12 6 37 13 57 15 19 2 36 6 38 8 9 9
117 -1 112 -10z m-616 -53 c-10 -10 -34 -28 -51 -40 -33 -23 -44 -57 -21 -64
7 -3 -1 -21 -21 -48 -35 -48 -66 -74 -80 -65 -5 3 -12 1 -16 -5 -3 -5 -21 -10
-40 -10 -41 0 -65 29 -65 78 0 18 -5 42 -10 52 -9 17 -6 20 40 26 27 4 55 13
61 20 7 8 21 11 34 8 15 -4 24 0 28 10 4 10 19 16 41 16 19 0 44 9 57 20 13
10 33 19 43 20 20 0 20 0 0 -18z m1046 -32 c0 -5 -10 -12 -22 -16 -24 -7 -69
-36 -106 -68 l-23 -20 -54 29 c-30 17 -53 35 -52 40 2 6 27 10 55 10 29 0 52
3 52 7 0 4 14 11 32 16 45 11 118 13 118 2z m-320 -51 c0 -5 7 -9 15 -9 8 0
15 -4 15 -9 0 -6 18 -20 40 -32 39 -22 54 -49 27 -49 -8 0 -33 -14 -55 -30
-30 -21 -42 -37 -42 -55 0 -18 5 -25 20 -25 11 0 20 -5 20 -10 0 -20 -30 -22
-58 -4 -15 10 -38 19 -52 21 -53 4 -90 16 -90 28 0 6 17 19 38 28 94 41 117
71 92 118 -8 14 -15 18 -22 11 -7 -7 -6 -17 2 -32 14 -27 1 -45 -45 -60 -18
-6 -36 -17 -38 -24 -3 -8 -15 -12 -30 -9 -28 5 -67 -35 -67 -69 0 -19 -1 -19
-25 -4 -15 10 -25 12 -25 5 0 -8 -18 -9 -58 -4 -51 6 -80 2 -152 -20 -3 -1
-17 -7 -31 -13 -29 -11 -107 -5 -126 11 -7 5 -13 19 -13 31 0 16 2 18 9 7 8
-12 12 -12 25 -2 9 7 22 11 30 8 22 -9 89 19 97 39 13 32 10 38 -9 21 -21 -19
-42 -22 -42 -6 0 7 -10 9 -24 5 -26 -6 -44 8 -26 19 6 4 8 15 5 26 -5 15 -1
19 18 19 13 0 27 3 31 7 14 14 151 42 161 32 13 -13 53 -11 58 4 3 9 9 9 27
-1 18 -11 25 -11 45 2 13 9 26 12 30 7 3 -6 17 -4 33 5 15 7 39 14 54 14 15 0
29 3 31 8 7 10 107 2 107 -9z m1230 2 c0 -9 -48 -21 -86 -21 -13 0 -24 4 -24
9 0 4 12 7 27 5 15 -1 34 1 43 6 19 12 40 12 40 1z m-2300 -10 c0 -5 -11 -11
-25 -13 -24 -5 -32 2 -18 15 9 10 43 8 43 -2z m2630 -62 c0 -6 -4 -7 -10 -4
-5 3 -10 11 -10 16 0 6 5 7 10 4 6 -3 10 -11 10 -16z m-158 -7 c22 -22 -15
-38 -112 -47 -39 -4 -62 -29 -58 -65 3 -22 8 -25 46 -25 48 0 53 -7 17 -23
-67 -31 -110 -4 -134 83 -14 53 -14 55 7 55 10 0 23 5 28 10 6 6 32 12 58 14
26 2 49 6 52 8 8 9 85 1 96 -10z m347 9 c24 -15 7 -34 -50 -54 -74 -26 -133
-34 -127 -16 3 8 20 18 40 24 19 5 42 15 50 22 13 11 55 31 68 32 3 0 11 -3
19 -8z m-3509 -30 c0 -12 -20 -25 -27 -18 -7 7 6 27 18 27 5 0 9 -4 9 -9z
m1102 -19 c6 -6 7 -15 4 -21 -9 -14 -63 -14 -71 -1 -3 6 -17 7 -31 4 -18 -5
-24 -2 -24 9 0 24 100 31 122 9z m2601 1 c8 -10 18 -30 22 -44 5 -22 2 -27
-32 -42 -56 -23 -104 -37 -201 -56 -97 -20 -126 -18 -112 8 5 9 11 29 15 44 4
19 11 27 23 26 9 -1 36 4 60 11 35 11 47 11 67 0 13 -7 41 -13 62 -14 l38 -1
-2 43 c-2 38 1 42 21 42 13 0 30 -8 39 -17z m-1287 -35 c56 -20 35 -78 -23
-64 -16 4 -40 10 -55 13 -26 5 -46 43 -33 63 7 12 63 6 111 -12z m-161 -10
c31 -27 32 -38 1 -38 -14 0 -28 -4 -31 -10 -3 -5 -29 -10 -57 -10 -46 0 -49 2
-37 16 8 9 12 27 11 40 -3 22 0 24 42 24 33 0 53 -6 71 -22z m-1309 -12 c7
-18 -40 -86 -72 -102 -31 -16 -74 -18 -74 -4 0 6 11 15 24 20 14 5 33 22 43
37 19 30 53 62 66 63 4 0 10 -6 13 -14z m80 -17 c3 -6 14 -9 24 -6 20 5 37
-21 23 -34 -4 -4 -34 -10 -66 -13 -56 -5 -58 -4 -55 17 2 12 14 27 28 34 31
16 37 16 46 2z m2224 2 c0 -12 -29 -23 -41 -15 -5 3 -7 10 -4 15 8 12 45 12
45 0z m-366 -18 c8 -21 -8 -38 -29 -29 -13 4 -14 10 -5 26 13 24 26 26 34 3z
m306 -2 c0 -9 -91 -54 -97 -47 -8 7 79 66 88 60 5 -3 9 -9 9 -13z m-2570 -31
c0 -11 -8 -24 -17 -28 -10 -4 -36 -19 -58 -32 -22 -14 -44 -24 -49 -22 -19 6
-56 -9 -56 -22 0 -23 -52 -30 -67 -10 -24 33 -10 44 114 89 36 14 71 29 77 35
5 5 20 10 33 10 16 0 23 -6 23 -20z m2150 1 c0 -6 -4 -13 -10 -16 -5 -3 -10 1
-10 9 0 9 5 16 10 16 6 0 10 -4 10 -9z m-240 -11 c0 -5 -4 -10 -10 -10 -5 0
-10 5 -10 10 0 6 5 10 10 10 6 0 10 -4 10 -10z m-961 -20 c17 0 31 5 31 10 0
6 5 10 12 10 9 0 9 -3 1 -11 -12 -12 -6 -39 10 -50 5 -4 6 -12 3 -18 -9 -14
-43 -15 -51 -1 -3 5 -28 12 -55 16 -28 4 -50 9 -50 13 0 4 7 17 16 29 12 17
19 20 34 12 10 -5 32 -10 49 -10z m1069 8 c16 -16 15 -28 -2 -28 -17 0 -38 24
-29 33 9 10 17 9 31 -5z m-1618 -21 c0 -6 5 -6 13 0 18 14 42 10 42 -6 0 -14
-103 -56 -113 -46 -3 2 -14 -1 -25 -7 -17 -9 -19 -8 -13 8 5 11 9 26 10 34 4
20 86 37 86 17z m110 4 c0 -12 -20 -25 -27 -18 -7 7 6 27 18 27 5 0 9 -4 9 -9z
m-434 -26 c8 -21 -16 -47 -38 -42 -12 4 -27 -6 -46 -29 -18 -22 -39 -35 -58
-37 -16 -2 -36 -7 -43 -11 -7 -4 -15 -5 -19 -1 -4 4 11 22 33 41 22 19 47 42
56 50 12 10 19 12 24 5 7 -12 65 16 65 31 0 14 20 8 26 -7z m2832 -7 c-4 -27
-74 -66 -89 -51 -16 16 2 44 35 59 45 19 58 17 54 -8z m-1803 2 c-3 -5 -13
-10 -21 -10 -8 0 -12 5 -9 10 3 6 13 10 21 10 8 0 12 -4 9 -10z m388 -5 c0 -5
-23 -16 -50 -24 -26 -7 -60 -19 -75 -27 -14 -8 -39 -14 -55 -14 -17 0 -36 -9
-48 -22 -18 -21 -20 -21 -23 -5 -6 32 6 46 45 52 21 4 52 13 70 21 17 8 38 14
46 14 9 0 19 5 22 11 8 13 71 8 68 -6z m767 0 c31 -16 39 -42 18 -63 -19 -19
-31 -14 -61 27 -24 35 -25 40 -10 44 10 3 19 5 21 6 2 0 16 -6 32 -14z m-1552
-4 c12 -7 12 -12 1 -30 -8 -11 -19 -21 -25 -21 -13 0 -35 45 -27 54 9 9 36 7
51 -3z m1437 -11 c3 -5 1 -10 -4 -10 -6 0 -11 5 -11 10 0 6 2 10 4 10 3 0 8
-4 11 -10z m-366 -31 c13 -17 22 -19 37 -13 10 5 56 8 102 6 l82 -4 0 -33 c0
-24 5 -34 19 -38 18 -4 20 -13 18 -81 -1 -42 -4 -76 -7 -76 -4 0 -25 -16 -47
-35 -48 -41 -99 -47 -127 -16 -21 23 -12 46 34 85 46 38 76 78 84 110 l7 29
-28 -18 c-44 -28 -149 -138 -158 -164 -7 -23 -13 -48 -14 -64 -1 -4 -7 -7 -13
-6 -32 4 -47 -5 -103 -56 -32 -30 -62 -55 -66 -55 -11 0 -20 17 -30 54 -4 17
-17 67 -28 110 -12 44 -19 82 -15 85 11 12 182 13 203 2 26 -14 63 2 60 27 -3
36 3 43 59 68 31 15 52 28 45 31 -7 2 -21 -1 -33 -7 -11 -6 -25 -8 -31 -4 -6
3 -18 0 -27 -8 -23 -20 -131 -37 -222 -35 -41 0 -81 -1 -89 -4 -8 -2 -16 3
-18 12 -2 10 10 23 33 35 20 10 51 32 68 47 27 25 38 27 88 25 31 -1 60 1 64
5 13 13 36 7 53 -14z m975 2 c17 -18 17 -20 -3 -40 -26 -26 -37 -26 -51 -2
-20 38 -13 51 31 60 3 0 14 -8 23 -18z m-570 -7 c4 -10 1 -14 -6 -12 -15 5
-23 28 -10 28 5 0 13 -7 16 -16z m-2995 -25 c-8 -5 -21 -9 -29 -9 -10 1 -7 7
10 21 17 14 26 17 28 9 3 -7 -2 -16 -9 -21z m3485 15 c3 -9 6 -27 6 -40 l0
-25 -97 6 c-148 9 -170 22 -85 49 42 13 71 18 148 24 12 1 25 -5 28 -14z
m-1735 -20 c7 -7 -2 -11 -36 -18 -26 -6 -34 -4 -43 14 -11 21 -11 22 32 15 23
-4 45 -9 47 -11z m-1089 -19 c0 -8 -6 -15 -14 -15 -17 0 -28 14 -19 24 12 12
33 6 33 -9z m3086 4 c9 -16 -14 -37 -49 -45 -18 -3 -38 -11 -45 -17 -9 -7 -18
-6 -30 6 -15 16 -15 18 8 35 13 9 30 19 37 22 24 10 72 9 79 -1z m-2406 -21
c24 -10 24 -10 5 -18 -12 -4 -27 -15 -34 -24 -20 -24 -41 -20 -41 10 0 14 -4
23 -10 19 -5 -3 -10 0 -10 9 0 27 27 28 90 4z m-824 -15 c-10 -10 -19 5 -10
18 6 11 8 11 12 0 2 -7 1 -15 -2 -18z m68 18 c3 -5 -5 -11 -19 -13 -24 -5 -32
2 -18 15 9 10 31 9 37 -2z m1266 -37 c0 -6 -7 -17 -15 -24 -12 -10 -18 -8 -34
11 -25 32 -11 52 24 35 14 -6 25 -16 25 -22z m1050 26 c0 -5 -7 -10 -16 -10
-8 0 -12 5 -9 10 3 6 10 10 16 10 5 0 9 -4 9 -10z m-1456 -12 c3 -7 7 -36 10
-64 4 -47 3 -53 -17 -58 -11 -3 -26 -1 -33 5 -7 5 -23 7 -37 4 -18 -5 -31 -1
-47 15 -12 12 -19 25 -15 28 4 4 11 -1 16 -11 15 -27 29 -20 23 11 -5 24 0 32
33 54 42 30 62 34 67 16z m85 -37 c27 -38 27 -41 -8 -41 -35 0 -45 12 -37 46
8 32 20 30 45 -5z m131 13 c0 -15 -26 -43 -41 -44 -9 0 -19 42 -13 52 10 15
54 9 54 -8z m470 -9 c-7 -8 -17 -15 -23 -15 -5 0 -2 9 8 20 21 23 35 19 15 -5z
m1241 -18 c-6 -6 -11 -25 -11 -41 0 -24 -3 -27 -10 -16 -5 8 -10 25 -10 37 0
12 -7 26 -16 31 -9 5 -14 14 -10 21 5 8 16 6 38 -5 22 -12 27 -19 19 -27z
m619 37 c0 -2 -17 -15 -38 -28 -33 -21 -49 -24 -112 -21 -43 2 -76 7 -78 14
-2 6 0 11 5 12 4 1 37 7 73 13 65 12 150 18 150 10z m-2764 -51 c12 -62 -5
-77 -109 -96 -141 -25 -147 -26 -147 -11 0 8 6 14 13 14 8 0 32 18 54 39 22
22 52 43 66 46 14 4 35 17 46 29 32 34 69 24 77 -21z m-436 17 c0 -23 -29 -41
-57 -34 -15 4 -22 0 -26 -15 -4 -17 -13 -21 -44 -21 -21 0 -55 -5 -75 -10 -38
-11 -73 -1 -90 24 -6 8 -8 7 -8 -1 0 -6 5 -15 10 -18 6 -3 10 -14 10 -24 0
-12 -13 -20 -47 -28 -27 -6 -58 -14 -70 -18 -19 -6 -23 -4 -23 14 0 12 -7 24
-15 27 -20 8 -19 34 1 34 9 0 29 9 44 20 16 11 52 25 81 30 29 6 58 15 63 20
17 17 27 11 37 -19 13 -37 46 -34 112 11 15 11 27 17 27 15 0 -3 12 -2 28 3
40 12 42 12 42 -10z m90 5 c-7 -8 -16 -15 -21 -15 -5 0 -6 7 -3 15 4 8 13 15
21 15 13 0 13 -3 3 -15z m1387 -45 c42 -70 43 -86 3 -65 -16 8 -39 15 -52 15
-38 0 -98 20 -98 33 0 20 73 77 95 74 12 -1 33 -23 52 -57z m866 45 c4 -8 2
-17 -3 -20 -6 -4 -10 -4 -10 -1 0 2 -3 11 -6 20 -3 9 -2 16 4 16 5 0 12 -7 15
-15z m127 3 c0 -7 12 -22 27 -34 l27 -21 -23 -31 c-26 -37 -42 -47 -92 -56
-28 -5 -38 -3 -43 9 -8 22 4 47 21 41 8 -4 17 4 24 22 23 61 35 82 46 82 7 0
13 -5 13 -12z m-1170 -17 c0 -5 -7 -12 -16 -15 -14 -5 -15 -4 -4 9 14 17 20
19 20 6z m1450 -1 c0 -5 -11 -10 -25 -10 -14 0 -25 5 -25 10 0 6 11 10 25 10
14 0 25 -4 25 -10z m-3241 -19 c-26 -21 -41 -19 -32 4 3 8 16 15 30 15 l25 0
-23 -19z m2732 2 c1 -10 2 -31 3 -47 2 -41 -19 -43 -54 -5 -36 40 -36 43 -7
57 34 16 57 14 58 -5z m69 8 c0 -6 -4 -13 -10 -16 -5 -3 -10 1 -10 9 0 9 5 16
10 16 6 0 10 -4 10 -9z m-1337 -22 c7 -10 2 -26 -17 -53 -31 -45 -32 -58 -9
-97 13 -22 14 -33 6 -51 -16 -35 -15 -79 3 -99 25 -27 2 -51 -45 -47 l-36 3 2
48 c2 26 -1 47 -6 47 -5 0 -11 9 -14 21 -5 19 -10 20 -63 13 -31 -3 -69 -13
-83 -20 -33 -17 -65 -18 -79 -1 -5 6 -12 39 -14 72 -2 33 -7 67 -11 75 -6 13
0 15 38 12 25 -2 53 -1 63 3 22 10 37 13 97 21 57 7 92 23 119 53 21 23 34 23
49 0z m228 4 c16 -10 29 -20 30 -23 0 -3 1 -24 3 -47 3 -47 20 -73 47 -73 11
0 19 -4 19 -10 0 -5 16 -10 35 -10 21 0 52 -11 77 -26 l42 -27 -34 -29 c-19
-16 -46 -35 -60 -42 -41 -20 -74 -40 -92 -54 -14 -12 -18 -10 -31 15 -8 15
-29 45 -46 67 -17 21 -29 42 -26 46 3 4 -4 10 -14 13 -17 4 -18 12 -14 68 l5
64 -31 12 c-41 15 -39 28 7 52 46 25 47 25 83 4z m-1761 -11 c0 -8 -54 -52
-65 -52 -14 0 -2 29 18 43 24 17 47 22 47 9z m700 -24 c0 -16 -58 -50 -71 -42
-17 10 -9 25 24 39 40 18 47 18 47 3z m2028 -28 c10 -16 30 -39 45 -50 15 -12
25 -25 22 -30 -3 -5 0 -21 5 -36 9 -23 7 -33 -8 -53 -10 -14 -21 -34 -25 -43
-3 -10 -11 -18 -16 -18 -16 0 -22 -32 -11 -66 10 -28 8 -37 -8 -61 -24 -34
-36 -80 -22 -88 6 -4 10 6 10 22 1 27 20 63 34 63 3 0 18 13 33 28 16 16 40
37 56 47 26 17 27 17 27 -4 0 -12 -9 -56 -21 -99 -11 -42 -27 -102 -35 -132
-20 -75 -45 -140 -55 -140 -4 0 -13 -2 -21 -5 -7 -3 -20 -1 -28 5 -13 8 -12
11 3 22 14 10 17 21 12 41 -7 26 -16 31 -70 39 -10 2 -22 14 -26 28 -11 39
-10 139 1 160 14 27 2 67 -21 73 -11 3 -19 14 -19 27 0 28 -26 76 -45 83 -8 4
-15 15 -15 25 0 23 25 46 42 40 7 -3 22 -2 33 2 10 4 31 1 45 -7 14 -7 33 -13
42 -13 9 0 20 -4 23 -10 3 -5 11 -10 17 -10 17 0 -34 36 -67 47 -37 12 -43 35
-15 63 12 12 26 35 32 51 13 37 24 37 46 -1z m-2845 4 c6 -7 -10 -45 -23 -54
-4 -3 -27 -21 -50 -40 -45 -37 -88 -50 -139 -42 -35 5 -41 21 -11 29 11 3 20
10 20 15 0 5 5 6 11 2 6 -3 14 -2 18 3 14 21 69 52 103 58 20 4 39 13 42 21 6
15 18 18 29 8z m2069 -14 c47 -15 71 -29 87 -51 29 -39 16 -57 -25 -36 -16 8
-48 18 -71 22 -23 3 -47 13 -54 21 -6 7 -15 12 -19 9 -11 -7 -40 23 -40 41 0
20 44 18 122 -6z m1836 -4 c2 -10 -5 -24 -16 -31 -21 -15 -36 -113 -33 -212 3
-99 -48 -309 -114 -463 -13 -30 -26 -63 -29 -72 -3 -10 -10 -18 -16 -18 -20 0
-10 50 20 99 53 85 63 131 56 240 -4 53 -6 114 -6 136 1 59 -15 74 -88 81 -34
4 -70 13 -80 20 -16 12 -16 14 6 34 12 11 22 27 22 34 0 11 89 57 94 48 0 -2
30 12 66 31 46 24 69 43 79 66 16 33 34 36 39 7z m-928 -12 c0 -8 -4 -14 -9
-14 -11 0 -22 26 -14 34 9 9 23 -3 23 -20z m-1176 -5 c10 -9 -19 -59 -33 -59
-12 0 -51 62 -45 72 6 9 65 -1 78 -13z m-2165 4 c-2 -27 -38 -68 -59 -68 -18
0 -25 -9 -35 -41 -19 -66 -73 -124 -115 -124 -35 0 -38 10 -9 36 12 10 27 31
35 46 21 40 144 158 165 158 11 0 19 -3 18 -7z m1374 -35 c3 -10 7 -10 20 1
24 19 21 4 -5 -30 -88 -115 -104 -122 -130 -56 -22 51 -22 57 -4 57 7 0 19 6
26 14 6 8 26 17 43 19 18 2 35 5 39 5 3 1 8 -4 11 -10z m112 -15 c-6 -26 -31
-51 -67 -65 -29 -12 -21 14 18 55 42 44 59 48 49 10z m2411 7 c19 0 18 -26 -2
-34 -25 -9 -84 -7 -84 3 0 15 43 42 58 36 8 -3 20 -5 28 -5z m-2276 -20 c6
-12 8 -30 5 -41 -9 -29 -35 -5 -35 32 0 34 15 38 30 9z m2063 5 c57 -23 31
-54 -45 -55 -31 0 -36 17 -16 50 15 24 16 24 61 5z m-3603 -4 c0 -5 -9 -11
-19 -14 -14 -3 -18 -1 -14 9 6 15 33 19 33 5z m786 -2 c3 -6 -12 -30 -35 -52
l-41 -42 -21 22 -22 21 34 31 c34 31 72 40 85 20z m355 -36 c10 -24 19 -49 19
-55 0 -13 -41 -47 -57 -48 -16 0 -17 -32 -2 -47 15 -15 3 -63 -16 -63 -19 0
-56 54 -58 87 -2 23 5 31 33 45 29 15 34 23 32 45 -2 16 -11 36 -19 45 -19 21
-12 33 22 34 23 2 29 -5 46 -43z m1757 10 c-4 -21 -19 -26 -38 -13 -13 9 -13
11 0 20 23 15 42 12 38 -7z m-392 -4 c3 -6 2 -15 -2 -19 -12 -12 -38 5 -30 19
9 14 23 14 32 0z m784 -15 c0 -8 -4 -12 -10 -9 -5 3 -10 13 -10 21 0 8 5 12
10 9 6 -3 10 -13 10 -21z m-1795 8 c6 -4 11 -26 12 -49 l0 -43 -49 0 c-47 0
-50 1 -44 23 3 12 6 27 6 34 0 7 12 19 28 27 32 18 34 18 47 8z m495 -37 c0
-12 -21 -25 -41 -25 -10 0 -12 53 -2 63 8 9 43 -22 43 -38z m1500 31 c0 -15
-18 -31 -26 -23 -7 7 7 37 17 37 5 0 9 -6 9 -14z m-3440 -38 c0 -5 -16 -8 -35
-8 -28 0 -35 4 -35 19 0 11 6 21 13 24 13 4 56 -23 57 -35z m975 12 c7 -32 -1
-54 -16 -45 -12 8 -12 75 0 75 5 0 12 -13 16 -30z m1776 20 c10 -6 19 -17 19
-26 0 -10 7 -13 25 -8 14 3 25 2 26 -2 1 -5 2 -27 3 -49 2 -41 31 -94 52 -95
6 0 21 -12 33 -26 l23 -26 -20 -20 c-18 -19 -25 -20 -79 -9 -125 24 -153 31
-190 48 -34 16 -38 22 -41 58 -2 37 3 45 57 103 33 34 62 62 66 62 3 0 15 -5
26 -10z m-1827 -51 c6 -30 -6 -59 -24 -59 -10 0 -30 47 -30 70 0 17 25 31 41
23 4 -1 9 -17 13 -34z m2410 10 c-5 -9 -34 -13 -34 -5 0 2 3 12 6 20 5 13 9
14 20 5 8 -6 11 -15 8 -20z m-2854 2 c0 -5 -7 -25 -15 -45 -14 -34 -14 -39 2
-66 9 -17 21 -30 25 -30 18 0 20 32 4 49 -13 14 -14 24 -7 44 13 33 41 41 77
22 16 -8 34 -15 41 -15 6 0 23 -14 37 -31 l27 -31 -26 -32 c-14 -17 -37 -49
-52 -71 -14 -22 -29 -42 -33 -45 -4 -3 -12 -15 -19 -27 -13 -26 -41 -31 -41
-7 0 9 10 30 22 47 22 31 12 29 -29 -7 -13 -11 -23 -29 -23 -41 0 -29 -9 -36
-29 -23 -13 8 -26 6 -52 -8 -46 -24 -69 -27 -69 -8 0 8 -5 12 -10 9 -6 -4 -29
12 -50 34 -22 23 -47 41 -56 41 -29 0 -9 23 36 40 32 12 46 24 48 40 5 33 -13
47 -36 27 -27 -24 -32 -21 -32 17 0 48 8 65 30 59 10 -3 29 1 41 9 73 40 189
71 189 49z m354 -42 l18 -52 -38 -34 c-21 -18 -50 -36 -64 -40 -26 -6 -90 -60
-90 -76 0 -5 7 -4 16 4 13 10 19 10 36 0 17 -10 23 -10 39 5 10 9 21 25 24 35
4 11 15 19 25 19 11 0 23 6 27 14 4 7 18 18 29 24 20 10 24 8 37 -21 8 -17 17
-56 19 -85 4 -44 1 -59 -17 -86 -12 -18 -25 -49 -29 -69 -4 -21 -17 -44 -31
-56 -26 -19 -33 -55 -14 -66 6 -4 17 1 24 11 12 16 17 17 35 6 17 -10 25 -10
36 -2 10 9 21 8 45 -7 39 -22 47 -41 22 -49 -10 -3 -26 -10 -35 -15 -26 -13
-55 -11 -61 5 -3 8 -22 18 -41 22 -20 3 -36 10 -36 15 0 5 -7 9 -15 9 -8 0
-15 3 -15 8 0 4 -20 20 -45 35 -25 16 -45 35 -45 42 0 8 -7 11 -20 8 -12 -3
-22 1 -26 11 -3 9 -10 16 -15 16 -14 0 -69 52 -69 65 0 7 9 20 20 30 11 10 20
25 20 33 0 18 35 68 77 110 23 23 33 42 33 64 0 23 11 42 43 75 23 23 47 43
52 43 6 0 19 -23 29 -51z m476 31 c0 -25 -17 -32 -62 -28 l-33 3 40 21 c52 28
55 28 55 4z m1125 -6 c36 -23 31 -46 -15 -68 -31 -15 -41 -26 -46 -51 -3 -17
-15 -37 -26 -44 -35 -22 -129 -51 -164 -51 -32 0 -32 0 -27 42 6 40 28 78 47
78 5 0 28 16 52 35 23 19 47 35 53 35 6 0 15 9 21 20 13 25 70 27 105 4z
m-775 1 c0 -3 -6 -14 -12 -25 -11 -17 -10 -22 2 -30 17 -11 51 -4 65 15 16 19
59 30 53 14 -3 -8 -13 -13 -22 -13 -10 1 -16 -6 -16 -18 0 -22 -50 -71 -95
-95 -16 -9 -34 -22 -38 -29 -9 -16 -43 -19 -52 -4 -3 6 1 13 9 16 20 8 20 47
0 90 -9 18 -14 39 -12 45 7 20 118 52 118 34z m356 -19 c4 -8 24 -87 24 -97 0
-11 -18 -14 -75 -15 -41 0 -75 2 -75 5 0 11 41 75 63 99 14 15 27 20 41 16 12
-4 21 -7 22 -8z m-2037 -58 c-28 -21 -129 -23 -129 -3 0 15 28 28 41 19 6 -3
21 2 35 11 13 9 28 14 32 11 4 -3 14 -1 22 4 26 16 24 -22 -1 -42z m3533 25
c4 -40 53 -43 115 -9 63 36 67 34 58 -21 -4 -27 -8 -70 -9 -96 -1 -39 -7 -56
-35 -89 l-35 -41 -33 39 c-50 57 -52 60 -59 91 -4 15 -10 33 -15 38 -4 6 -11
34 -15 63 -5 43 -4 52 9 52 10 0 17 -11 19 -27z m-2029 -32 l18 -39 -31 -31
c-27 -26 -30 -35 -25 -65 5 -24 1 -45 -13 -72 -11 -22 -25 -51 -32 -65 -12
-27 -76 -57 -90 -43 -5 5 2 31 16 57 33 67 31 87 -5 48 -36 -39 -46 -39 -60
-1 -5 17 -17 33 -26 36 -25 10 -18 51 14 73 16 12 32 21 35 21 4 0 16 9 28 20
12 11 28 20 35 20 7 0 13 6 13 13 0 8 9 22 20 32 11 10 20 15 20 12 0 -3 12 1
28 9 36 19 34 19 55 -25z m2319 -2 c2 -5 36 -11 76 -13 41 -2 78 -8 84 -14 5
-5 10 -70 11 -144 l2 -133 -40 -83 c-22 -45 -42 -82 -46 -82 -12 0 -89 84 -89
97 0 8 -11 38 -25 66 -21 47 -24 67 -26 179 -1 138 11 189 37 153 7 -10 15
-22 16 -26z m-2552 -1 c0 -21 -11 -23 -28 -6 -18 18 -15 27 8 25 12 -1 20 -8
20 -19z m2138 -16 c5 -52 -51 -156 -107 -196 -18 -14 -40 -34 -48 -45 -8 -12
-21 -21 -29 -21 -12 0 -14 7 -9 31 9 40 10 46 20 94 10 56 30 84 54 78 16 -4
22 2 31 35 8 30 17 43 38 50 38 14 47 10 50 -26z m788 13 c8 -34 -3 -75 -21
-75 -16 0 -19 19 -9 69 8 37 21 40 30 6z m-3218 -14 c6 -16 29 -49 51 -73 39
-40 52 -68 32 -68 -4 0 -20 -11 -36 -26 -31 -28 -35 -27 -40 13 -2 15 -13 60
-23 98 -11 39 -17 73 -15 78 9 15 21 6 31 -22z m-1120 -12 c14 -16 18 -29 11
-29 -13 0 -49 38 -49 52 0 16 15 7 38 -23z m320 6 c-2 -7 -32 -34 -68 -61 -38
-29 -66 -58 -68 -71 -2 -15 -19 -28 -60 -46 -53 -22 -58 -23 -78 -8 -28 21
-21 37 24 52 21 7 65 40 104 78 37 36 78 69 90 72 31 7 60 -1 56 -16z m1947
-4 c-9 -16 -25 -3 -18 15 4 10 9 12 15 6 6 -6 7 -15 3 -21z m-895 -33 c0 -4
-13 -8 -30 -8 -34 0 -35 2 -18 30 11 18 14 18 30 3 10 -9 18 -20 18 -25z m603
12 c14 0 17 -5 12 -22 -7 -24 -66 -114 -94 -145 -9 -10 -31 -37 -49 -60 -19
-24 -37 -43 -42 -43 -12 0 -23 127 -12 145 5 9 19 22 32 28 22 11 35 28 75
100 15 26 17 27 38 12 12 -8 30 -15 40 -15z m687 5 c0 -22 -4 -25 -40 -25 -47
0 -50 9 -12 32 39 23 52 22 52 -7z m-2870 5 c0 -5 -17 -22 -37 -37 -44 -33
-84 -67 -125 -107 -16 -16 -31 -26 -34 -23 -5 5 23 68 35 77 4 3 14 17 24 33
10 15 24 27 31 27 7 0 19 6 26 14 16 21 80 33 80 16z m3835 -20 c-5 -8 -11 -8
-17 -2 -6 6 -7 16 -3 22 5 8 11 8 17 2 6 -6 7 -16 3 -22z m-3673 -10 c16 -17
15 -19 -5 -37 -12 -10 -47 -32 -77 -48 -30 -15 -84 -47 -120 -70 -68 -44 -106
-59 -115 -45 -3 5 2 15 10 22 9 7 33 30 55 51 21 20 43 37 48 37 5 0 14 11 20
25 6 14 16 25 22 25 6 0 31 15 56 34 48 36 75 38 106 6z m2203 -33 c-19 -27
-19 -56 0 -63 31 -12 12 -44 -72 -122 -49 -44 -101 -91 -116 -103 l-29 -22
-21 27 c-12 15 -35 29 -51 32 -24 4 -28 2 -24 -14 4 -15 1 -18 -13 -15 -23 6
-13 28 40 87 21 23 54 63 74 90 l37 48 9 -25 c8 -21 19 -27 56 -33 61 -9 83 9
23 20 -39 7 -68 25 -68 42 0 8 7 28 15 44 13 25 22 29 62 32 27 2 58 1 70 -1
21 -3 21 -5 8 -24z m560 13 c3 -5 1 -10 -4 -10 -6 0 -11 5 -11 10 0 6 2 10 4
10 3 0 8 -4 11 -10z m75 -10 c14 -11 32 -20 41 -20 8 0 24 -7 35 -15 12 -9 43
-14 89 -15 102 0 120 -25 61 -84 -39 -39 -67 -56 -94 -56 -11 0 -32 -10 -47
-21 -16 -13 -30 -18 -33 -12 -4 5 -21 18 -38 28 -29 16 -31 21 -26 61 3 32 -1
52 -17 80 -13 21 -19 44 -16 55 8 24 14 23 45 -1z m879 -27 c12 -27 33 -66 46
-88 37 -62 45 -83 45 -124 l0 -38 -119 -7 c-73 -4 -131 -12 -148 -21 -15 -8
-39 -15 -52 -15 -29 0 -61 26 -61 49 0 20 94 111 115 111 8 0 15 5 15 10 0 6
7 10 15 10 8 0 15 6 15 13 0 7 16 36 35 66 19 29 35 59 35 67 0 8 8 14 19 14
12 0 26 -15 40 -47z m-992 -33 c16 -62 11 -95 -24 -162 -16 -31 -24 -63 -25
-98 0 -44 -3 -52 -23 -60 -26 -10 -58 -51 -92 -120 -13 -26 -32 -55 -43 -65
-19 -17 -21 -17 -41 1 -30 27 -21 97 25 197 20 43 36 85 36 92 0 8 -17 26 -38
39 -21 13 -46 36 -55 50 -15 23 -20 24 -42 14 -31 -14 -31 -13 -38 40 -6 52 7
68 65 77 24 3 63 13 88 21 47 14 154 33 179 30 8 0 20 -24 28 -56z m-496 7
c-8 -8 -11 -5 -11 9 0 27 14 41 18 19 2 -9 -1 -22 -7 -28z m-2621 20 c0 -7 -5
-18 -11 -24 -6 -6 -14 -35 -17 -64 -6 -47 -10 -54 -31 -57 -13 -2 -27 0 -32 5
-15 15 9 78 44 116 34 38 47 45 47 24z m3160 -17 c0 -11 -4 -20 -10 -20 -5 0
-10 9 -10 20 0 11 5 20 10 20 6 0 10 -9 10 -20z m-1367 -31 c-6 -23 -10 -23
-29 -5 -19 19 -18 21 10 22 18 1 22 -2 19 -17z m337 7 c0 -17 -24 -38 -33 -29
-4 3 -7 -1 -7 -10 0 -19 -41 -50 -52 -39 -12 12 15 63 30 57 7 -2 12 4 12 15
0 15 7 20 25 20 15 0 25 -6 25 -14z m545 -16 c4 -6 11 -59 17 -117 12 -121 -2
-232 -33 -280 -11 -15 -29 -43 -40 -60 -22 -35 -39 -43 -39 -18 0 8 -4 15 -8
15 -5 0 -22 24 -37 53 -16 28 -35 58 -42 65 -7 7 -13 18 -13 23 0 5 -16 17
-35 26 -19 9 -35 22 -35 30 0 15 32 48 118 123 43 37 70 69 84 102 20 47 47
63 63 38z m522 -12 c-3 -8 -6 -5 -6 6 -1 11 2 17 5 13 3 -3 4 -12 1 -19z
m-1444 -25 c4 -7 14 -13 21 -13 8 0 16 -7 20 -15 3 -8 15 -15 26 -15 11 0 20
-6 20 -12 0 -19 -98 -124 -107 -115 -8 9 26 77 39 77 10 0 10 11 -1 29 -8 12
-16 8 -44 -22 -35 -39 -64 -50 -52 -19 14 35 34 106 31 109 -2 2 -15 -21 -30
-52 -26 -56 -40 -64 -76 -45 -13 7 -17 16 -13 28 10 28 56 64 75 59 11 -3 18
0 18 9 0 8 7 14 15 14 8 0 15 5 15 11 0 13 29 -7 43 -28z m-923 8 c0 -4 -9
-12 -20 -17 -19 -8 -19 -11 -5 -38 27 -52 -9 -124 -41 -82 -6 9 -14 16 -18 16
-13 0 -5 -21 14 -37 11 -10 20 -23 20 -30 0 -7 6 -14 13 -15 25 -3 33 -5 60
-18 19 -10 31 -10 38 -3 8 8 19 7 37 -3 15 -8 32 -14 38 -14 6 0 17 -7 24 -15
15 -19 49 -19 73 -1 17 13 17 15 -3 29 -17 12 -19 18 -10 41 15 39 14 40 -25
10 -35 -26 -36 -26 -78 -11 -23 9 -51 18 -62 20 -13 3 -5 7 23 12 23 4 42 11
42 15 0 3 6 7 13 8 34 2 97 11 134 20 47 11 53 8 53 -25 0 -13 5 -23 12 -23
22 0 48 -33 48 -62 0 -16 4 -38 10 -48 12 -22 3 -50 -16 -50 -8 0 -14 -4 -14
-10 0 -5 -8 -10 -18 -10 -10 0 -60 -27 -112 -60 -52 -33 -105 -60 -118 -60
-36 0 -59 17 -65 49 -11 55 -48 75 -159 88 -26 3 -52 11 -59 19 -6 8 -17 14
-23 14 -6 0 -23 20 -38 45 -15 25 -34 45 -42 45 -9 0 -20 9 -26 21 -15 28 4
76 34 85 11 3 30 14 41 24 11 10 31 21 45 25 14 4 35 16 47 27 16 15 30 19 50
15 16 -3 36 0 47 8 18 14 36 12 36 -4z m3497 -23 c6 -18 21 -67 34 -108 19
-59 33 -83 71 -122 27 -26 48 -50 48 -54 0 -4 7 -12 16 -18 10 -8 15 -29 16
-65 0 -45 -4 -58 -26 -80 l-26 -26 0 27 c0 15 5 50 11 78 7 35 8 55 1 62 -10
10 -16 -12 -39 -141 -8 -42 -11 -46 -72 -77 -66 -34 -116 -80 -132 -121 -5
-13 -9 -46 -9 -73 0 -45 -3 -52 -36 -77 -21 -15 -54 -43 -74 -60 -21 -18 -40
-33 -44 -33 -23 0 28 117 83 189 17 23 26 46 26 72 0 31 3 39 18 39 20 0 41
46 31 69 -4 9 -6 46 -6 83 0 51 5 75 21 96 26 37 91 210 91 244 0 16 -9 34
-25 46 -27 21 -32 51 -13 70 18 18 23 15 35 -20z m-4003 -21 c-2 -7 -14 -20
-26 -28 -11 -7 -41 -31 -67 -51 -25 -21 -50 -38 -56 -38 -6 0 -22 -10 -34 -21
-17 -16 -25 -18 -31 -10 -13 22 2 62 34 85 26 20 75 42 83 38 2 -1 22 9 45 22
45 24 61 24 52 3z m3219 -3 c23 -31 20 -35 -38 -41 -50 -6 -56 3 -27 42 22 31
42 31 65 -1z m1187 -11 c0 -13 -9 -36 -20 -50 -11 -14 -20 -31 -20 -38 0 -7
-7 -15 -15 -19 -19 -7 -19 -9 6 61 12 32 23 64 25 71 6 21 24 3 24 -25z
m-3865 7 c3 -5 1 -10 -4 -10 -6 0 -11 5 -11 10 0 6 2 10 4 10 3 0 8 -4 11 -10z
m1263 -36 c-3 -3 -23 -4 -44 -2 l-39 3 35 22 c35 23 35 23 44 3 5 -11 7 -23 4
-26z m1027 -24 c-9 -16 -18 -30 -20 -30 -6 0 6 32 18 48 17 22 18 13 2 -18z
m1137 -8 c13 -22 14 -31 4 -50 l-12 -23 -12 26 c-14 29 -16 75 -4 75 4 0 15
-12 24 -28z m-1430 -16 c33 -31 35 -36 23 -52 -8 -11 -15 -14 -15 -7 0 6 -13
24 -30 40 -28 26 -39 53 -22 53 4 0 24 -15 44 -34z m-2832 16 c0 -4 -9 -13
-20 -20 -18 -11 -20 -10 -20 8 0 13 7 20 20 20 11 0 20 -3 20 -8z m439 -26
c-7 -15 -20 -26 -32 -26 -12 0 -31 -9 -43 -21 -15 -14 -24 -17 -29 -9 -13 21
89 97 113 84 1 -1 -3 -13 -9 -28z m1670 21 c6 -8 8 -17 4 -20 -11 -12 -57 -7
-76 7 -18 14 -18 14 0 19 35 9 61 7 72 -6z m-1834 -17 c-3 -5 -10 -10 -16 -10
-5 0 -9 5 -9 10 0 6 7 10 16 10 8 0 12 -4 9 -10z m2955 -7 c6 -6 -30 -33 -98
-74 -29 -17 -55 -29 -58 -26 -3 3 11 30 31 60 36 54 37 55 78 50 23 -3 44 -8
47 -10z m-3309 -5 c3 -27 -4 -44 -22 -61 -27 -25 -41 -17 -24 13 8 14 18 33
21 43 7 20 23 23 25 5z m2017 0 c-5 -15 -58 -24 -58 -9 0 9 20 17 48 20 8 0
12 -5 10 -11z m-1711 -22 c-9 -7 -17 -19 -17 -26 0 -7 -9 -28 -21 -46 -15 -25
-30 -35 -62 -41 -54 -11 -87 -5 -87 16 0 15 15 24 90 55 14 5 33 16 43 25 24
20 61 39 67 34 3 -3 -3 -10 -13 -17z m2863 9 c0 -8 -4 -15 -10 -15 -5 0 -10 7
-10 15 0 8 5 15 10 15 6 0 10 -7 10 -15z m-1798 -26 c9 -10 21 -19 26 -19 14
0 26 -40 15 -50 -4 -5 -21 -10 -38 -12 -32 -3 -47 17 -59 80 -5 31 -4 33 17
27 12 -4 29 -15 39 -26z m1497 8 c45 12 43 -97 -2 -145 l-22 -24 -6 24 c-12
40 -10 96 4 101 9 3 9 9 0 25 -6 11 -9 23 -5 27 4 3 8 2 10 -3 2 -6 11 -8 21
-5z m618 2 c25 -9 26 -12 11 -20 -20 -11 -62 6 -53 22 8 11 8 11 42 -2z
m-3390 -23 c-7 -18 -47 -41 -47 -27 0 12 42 53 48 46 2 -2 2 -11 -1 -19z
m4168 -3 c0 -26 -61 -132 -76 -133 -27 0 -79 31 -96 58 -9 15 -28 36 -42 48
l-24 21 52 10 c29 6 54 6 57 2 3 -5 11 -3 18 4 17 16 111 8 111 -10z m-255
-11 c0 -14 -23 -32 -42 -32 -25 0 -23 13 5 26 28 15 37 16 37 6z m-597 -52
c16 -64 19 -100 10 -100 -6 0 -24 7 -42 16 -25 13 -30 19 -20 30 8 10 8 22 0
45 -13 37 -7 51 22 47 15 -2 24 -14 30 -38z m527 30 c0 -5 -7 -10 -15 -10 -8
0 -15 5 -15 10 0 6 7 10 15 10 8 0 15 -4 15 -10z m-2187 -32 c4 -15 -29 -48
-48 -48 -22 0 -28 33 -9 47 23 17 51 17 57 1z m253 -34 c4 -22 2 -40 -5 -47
-14 -14 -14 -60 -1 -73 8 -8 2 -21 -20 -44 -47 -50 -39 -64 22 -33 74 37 69
39 62 -19 -5 -48 -4 -54 17 -63 32 -14 34 -30 4 -43 -34 -16 -33 -35 2 -21 35
13 48 -1 45 -52 -2 -34 1 -42 18 -46 36 -10 23 -38 -29 -61 -72 -31 -254 -62
-265 -44 -11 19 24 67 79 107 30 22 54 43 55 47 0 16 -38 -8 -97 -59 -66 -58
-78 -87 -47 -117 20 -20 121 -22 167 -3 18 8 57 19 87 26 52 12 87 25 154 57
16 8 46 14 67 14 21 0 41 5 44 10 8 13 55 13 55 0 0 -5 -15 -16 -32 -23 -18
-8 -39 -21 -47 -30 -7 -10 -19 -17 -26 -17 -16 0 -29 -44 -25 -85 2 -30 17
-48 31 -39 4 2 10 0 13 -5 10 -16 -76 -78 -114 -82 -67 -7 -375 3 -386 12 -15
12 -38 -33 -30 -59 9 -28 -28 -35 -83 -16 -49 17 -106 10 -121 -15 -7 -12 -9
-5 -10 27 0 37 -2 41 -17 33 -10 -5 -59 -22 -110 -38 -95 -30 -115 -27 -87 12
19 25 18 39 -2 31 -14 -5 33 60 73 102 21 22 27 99 9 126 -20 31 -69 43 -99
24 -12 -8 -38 -15 -57 -17 -19 -2 -43 -7 -53 -13 -10 -5 -20 -8 -21 -6 -1 2
-14 20 -29 40 -21 28 -25 43 -21 67 4 16 14 33 23 36 9 3 16 5 16 3 0 -2 15 7
33 20 17 13 32 20 33 15 1 -4 2 -17 3 -27 1 -15 14 -22 54 -31 28 -7 52 -10
52 -7 0 2 6 -1 14 -7 15 -13 39 -6 77 21 14 11 35 20 47 21 12 0 24 7 26 14 3
7 14 13 24 13 11 0 25 7 32 15 7 8 18 15 24 15 6 0 33 23 61 50 27 28 53 50
57 50 4 0 17 18 28 40 23 45 43 45 59 -2 6 -17 16 -28 23 -26 19 7 21 43 3 58
-8 7 -15 19 -15 26 0 8 -4 14 -10 14 -15 0 -12 37 4 43 7 3 19 0 25 -6 8 -8
11 -7 11 6 0 9 -8 20 -17 25 -16 9 -16 12 0 36 10 14 25 26 35 26 9 1 33 9 52
19 19 11 38 17 42 15 4 -3 10 -21 14 -40z m1566 -63 c-2 -99 -1 -102 25 -125
23 -20 31 -22 67 -14 94 21 103 21 109 -1 4 -17 13 -21 49 -21 68 0 75 -11 70
-107 l-4 -82 -38 -6 c-22 -4 -59 0 -91 9 -30 8 -81 20 -114 27 -118 23 -196
73 -127 81 23 3 27 8 30 40 4 44 -13 77 -68 138 -39 43 -40 47 -34 95 9 68 17
76 78 72 l51 -3 -3 -103z m-2967 63 c16 -47 50 -66 120 -65 36 1 95 -17 95
-29 0 -5 8 -11 18 -14 18 -6 72 -100 72 -126 0 -13 1 -13 10 0 8 13 10 12 10
-2 0 -11 8 -18 19 -18 11 0 26 -3 35 -6 13 -5 13 -8 -3 -25 -27 -29 -123 -99
-136 -99 -7 0 -20 9 -30 20 -10 11 -26 20 -35 20 -9 0 -36 14 -60 32 -33 25
-61 35 -122 45 -63 10 -85 18 -104 38 -12 14 -29 25 -36 25 -16 1 -78 56 -78
69 0 5 17 15 38 21 20 7 41 16 47 21 5 5 22 9 37 9 41 0 68 32 68 81 0 48 19
49 35 3z m-82 1 c-3 -8 -14 -15 -24 -15 -10 0 -19 -4 -19 -8 0 -10 -111 -34
-119 -26 -3 3 6 16 21 29 22 19 35 23 63 18 21 -3 35 -2 35 5 0 11 29 21 42
15 4 -2 5 -10 1 -18z m2741 -26 c-7 -11 -34 -12 -34 -1 0 14 11 21 26 15 8 -3
11 -9 8 -14z m-3254 -2 c0 -18 -38 -62 -46 -54 -7 7 27 67 38 67 4 0 8 -6 8
-13z m3170 -2 c0 -9 -6 -12 -15 -9 -8 4 -15 10 -15 15 0 5 7 9 15 9 8 0 15 -7
15 -15z m-380 -14 c0 -11 -4 -23 -10 -26 -6 -4 -10 5 -10 19 0 14 5 26 10 26
6 0 10 -9 10 -19z m-971 -4 c-8 -7 -18 -20 -22 -29 -3 -10 -17 -18 -29 -19
-13 0 -33 -2 -45 -3 -32 -4 -28 7 10 25 74 37 117 50 86 26z m-1558 -50 c-13
-13 -15 11 -4 40 7 16 8 15 11 -6 2 -13 -1 -28 -7 -34z m3117 11 c23 -16 42
-35 42 -43 0 -8 8 -15 18 -15 32 0 87 -85 75 -116 -14 -37 -53 10 -77 91 -3
11 -3 -4 0 -33 2 -29 7 -58 10 -66 4 -10 -10 -17 -48 -26 -29 -7 -73 -19 -96
-27 -39 -13 -49 -13 -93 3 -26 10 -50 23 -53 30 -3 7 4 35 15 63 10 28 19 62
19 75 0 16 11 31 33 45 17 11 45 30 61 40 16 11 34 17 40 14 6 -4 30 -19 54
-35z m-3205 16 c37 -6 38 -7 35 -46 -3 -36 -6 -41 -41 -53 -21 -7 -40 -13 -42
-14 -36 -6 -64 -16 -82 -27 -20 -12 -23 -12 -23 0 0 18 49 106 60 106 4 0 11
12 14 26 5 18 12 24 24 20 9 -3 34 -8 55 -12z m1277 8 c0 -11 -22 -32 -32 -32
-5 0 -4 9 2 20 11 20 30 28 30 12z m1420 -46 c0 -19 5 -38 10 -41 6 -3 10 -13
10 -21 0 -26 -43 -105 -76 -141 -18 -19 -36 -47 -39 -63 -9 -40 -107 -124
-135 -115 -11 3 -20 10 -20 14 0 12 63 68 96 84 43 22 56 41 48 71 -5 22 -12
26 -40 26 -19 0 -34 4 -34 10 0 5 20 29 45 53 25 25 45 49 45 55 0 12 72 102
83 102 4 0 7 -15 7 -34z m-1570 20 c0 -3 -4 -8 -10 -11 -5 -3 -10 -1 -10 4 0
6 5 11 10 11 6 0 10 -2 10 -4z m1735 -21 c0 -19 -47 -60 -63 -54 -14 6 37 81
51 76 7 -2 12 -12 12 -22z m1117 5 c6 0 7 -13 2 -32 -4 -18 -8 -46 -8 -63 -1
-29 -3 -30 -48 -33 l-48 -3 0 35 c0 26 8 44 33 70 17 19 38 32 45 30 8 -2 18
-4 24 -4z m-2992 -25 c-7 -9 -15 -13 -17 -11 -7 7 7 26 19 26 6 0 6 -6 -2 -15z
m999 -9 c10 -12 8 -17 -9 -26 -12 -6 -30 -10 -41 -8 -18 3 -19 4 -4 26 19 25
37 28 54 8z m-809 -6 c0 -5 -5 -10 -11 -10 -5 0 -7 5 -4 10 3 6 8 10 11 10 2
0 4 -4 4 -10z m1178 -32 c12 -24 22 -48 22 -53 0 -13 -36 -45 -50 -45 -12 0
-12 -2 -1 37 5 17 6 48 1 67 -11 48 0 45 28 -6z m2065 22 c-3 -11 -9 -20 -14
-20 -10 0 -12 24 -2 33 13 13 21 7 16 -13z m-2873 0 c0 -8 -51 -40 -65 -40
-10 0 -5 26 7 38 14 14 58 16 58 2z m765 -21 c4 -17 4 -47 0 -67 -7 -40 -41
-102 -56 -102 -5 0 -14 20 -20 45 -15 58 -29 59 -18 1 9 -48 -2 -104 -23 -118
-25 -15 -56 -9 -64 14 -4 13 -20 35 -36 50 l-29 27 19 31 c23 36 79 80 103 80
10 0 19 3 21 8 5 13 72 62 85 62 6 0 14 -14 18 -31z m-973 -5 c-8 -53 -31 -63
-27 -11 4 41 3 39 18 34 6 -2 11 -13 9 -23z m1628 16 c0 -14 -22 -60 -30 -60
-10 0 -30 23 -30 35 0 7 10 17 23 23 28 14 37 14 37 2z m-1670 -75 c0 -20 -37
-48 -45 -35 -4 7 -2 17 4 23 6 6 11 27 11 47 l0 35 15 -29 c8 -15 15 -34 15
-41z m2540 35 c0 -16 -4 -30 -10 -30 -11 0 -14 43 -3 53 11 12 13 8 13 -23z
m-2337 -15 c15 7 27 10 27 6 0 -11 -71 -76 -101 -91 -13 -7 -26 -16 -29 -19
-11 -13 -102 -53 -108 -47 -9 10 29 76 55 95 13 9 40 31 60 49 36 34 37 34 52
13 15 -19 18 -20 44 -6z m-1420 -29 c28 -45 34 -66 18 -66 -6 0 -11 -14 -13
-32 -3 -31 -5 -33 -75 -49 -77 -17 -83 -16 -83 12 0 10 -18 33 -40 50 -73 58
-49 99 67 119 89 15 96 13 126 -34z m2832 24 c26 -29 5 -50 -51 -50 -24 0 -44
2 -44 5 0 3 10 19 22 35 25 35 48 38 73 10z m-3226 -28 c-11 -32 -29 -44 -29
-19 0 15 30 60 36 54 2 -2 -1 -18 -7 -35z m451 24 c0 -3 -4 -8 -10 -11 -5 -3
-10 -1 -10 4 0 6 5 11 10 11 6 0 10 -2 10 -4z m48 -45 c3 -8 -1 -12 -9 -9 -7
2 -15 10 -17 17 -3 8 1 12 9 9 7 -2 15 -10 17 -17z m3666 -45 c11 -50 -4 -82
-41 -88 -45 -6 -60 1 -66 31 -10 49 6 85 39 92 48 9 58 4 68 -35z m68 -23
l-17 -36 -6 44 c-8 54 -2 65 21 44 18 -16 18 -19 2 -52z m-3592 13 c29 -32 14
-38 -37 -15 -30 13 -43 24 -43 38 0 18 3 19 29 10 16 -6 38 -21 51 -33z m910
35 c0 -12 -29 -35 -36 -28 -11 10 5 37 21 37 8 0 15 -4 15 -9z m1755 -39 c-21
-5 -40 12 -30 28 5 8 13 6 27 -7 18 -16 19 -18 3 -21z m-2820 -14 c30 -17 41
-44 18 -42 -7 1 -29 2 -48 3 -30 1 -35 4 -35 25 0 13 3 32 7 42 5 14 8 15 17
3 6 -8 25 -22 41 -31z m1825 35 c-1 -18 -18 -35 -24 -24 -4 6 -4 16 -1 21 7
12 25 13 25 3z m750 -15 c0 -16 -3 -19 -11 -11 -6 6 -8 16 -5 22 11 17 16 13
16 -11z m534 -13 c4 -16 13 -25 26 -25 11 0 37 -9 58 -20 22 -11 59 -24 82
-28 43 -7 69 -32 33 -32 -26 0 -128 33 -144 47 -8 6 -36 14 -64 18 -83 11
-105 16 -105 26 0 5 14 12 30 16 17 3 33 10 36 14 11 19 42 9 48 -16z m-974
-15 c0 -12 -9 -24 -22 -29 -31 -12 -33 -7 -13 23 21 31 35 33 35 6z m1873 -15
c-3 -41 -53 -89 -53 -51 0 7 7 30 15 50 18 42 41 43 38 1z m-4381 -6 c-8 -55
-84 -159 -116 -159 -15 0 -4 70 14 93 11 14 20 30 20 36 0 6 3 11 8 10 22 -3
52 16 52 33 0 11 5 18 13 15 6 -2 10 -15 9 -28z m1173 -19 c-21 -22 -38 -30
-64 -30 l-35 0 29 30 c21 22 38 30 64 30 l35 0 -29 -30z m1114 7 c30 -33 8
-52 -57 -48 -33 2 -40 30 -13 53 30 24 43 23 70 -5z m-2224 -27 c0 -13 -6 -25
-12 -27 -9 -3 -13 6 -13 27 0 21 4 30 13 28 6 -3 12 -15 12 -28z m415 8 c0
-13 -23 -5 -28 10 -2 7 2 10 12 6 9 -3 16 -11 16 -16z m2543 -2 c15 -15 12
-72 -4 -82 -17 -10 -9 -31 18 -43 17 -8 23 -15 16 -22 -11 -11 -43 -2 -43 12
0 5 -6 9 -14 9 -15 0 -146 118 -146 132 0 15 157 9 173 -6z m1646 -26 c40 -50
71 -122 78 -180 5 -52 -27 -147 -83 -242 -19 -33 -34 -61 -34 -64 0 -3 -8 -17
-19 -32 -10 -15 -33 -51 -52 -81 -31 -51 -33 -53 -43 -31 -9 19 -7 25 12 38
39 26 24 112 -21 112 -12 0 -28 4 -35 8 -14 10 -6 42 11 42 18 0 136 84 140
100 1 8 -1 38 -5 65 -3 28 -7 78 -7 112 -1 34 -6 86 -12 114 -10 47 -9 54 7
66 25 18 27 18 63 -27z m-1322 4 c34 -15 60 -30 58 -34 -5 -9 -107 15 -138 31
-18 10 -15 29 6 29 7 0 40 -12 74 -26z m-799 -16 c6 -6 12 -16 12 -23 0 -23
-24 -22 -57 0 -24 17 -29 25 -20 34 11 11 43 6 65 -11z m977 10 c27 -12 34
-38 10 -38 -23 0 -95 31 -95 41 0 13 54 11 85 -3z m-3234 -8 c10 -6 19 -17 19
-25 0 -8 10 -21 22 -29 21 -15 21 -16 2 -38 -40 -48 -61 -66 -125 -111 -51
-35 -155 -87 -176 -87 -1 0 -5 16 -9 36 -3 19 -15 41 -25 47 -11 7 -19 16 -19
21 0 16 64 105 76 106 6 0 16 11 23 24 17 31 53 48 121 56 30 4 59 8 63 9 5 0
17 -4 28 -9z m365 -21 c9 -11 14 -22 10 -26 -9 -9 -98 35 -92 45 9 14 64 1 82
-19z m2169 11 c3 -5 32 -26 63 -47 31 -21 66 -46 76 -55 11 -10 25 -18 30 -18
13 0 62 -44 68 -61 2 -6 31 -17 63 -25 33 -7 78 -18 100 -24 22 -6 51 -14 65
-17 14 -2 40 -12 58 -21 26 -13 32 -22 29 -39 -2 -13 1 -27 7 -32 12 -10 193
-8 203 2 3 4 18 0 32 -8 52 -26 146 -55 181 -55 20 0 46 -7 59 -16 l22 -16
-21 -23 c-12 -13 -24 -43 -28 -70 l-7 -47 -75 -31 c-41 -17 -104 -46 -140 -63
-46 -22 -69 -29 -77 -22 -24 19 -13 46 39 97 28 28 49 53 46 56 -9 9 -62 -23
-97 -59 -24 -24 -46 -37 -75 -41 -22 -3 -53 -8 -68 -11 -24 -5 -28 -2 -37 34
-12 44 -48 95 -61 87 -4 -3 -43 2 -86 10 -43 8 -80 13 -82 10 -3 -3 -26 7 -52
21 -57 31 -111 24 -235 -31 -22 -10 -51 -22 -65 -28 -14 -5 -34 -13 -45 -18
-11 -4 -30 -10 -42 -14 -12 -3 -24 -17 -28 -33 -13 -54 -65 -85 -65 -39 -1 56
-29 61 -175 34 -53 -10 -93 -13 -98 -8 -6 6 -23 2 -43 -10 -19 -10 -39 -19
-45 -19 -6 0 -35 -12 -65 -26 l-55 -26 -40 41 c-21 23 -39 44 -39 46 0 13 130
55 169 55 11 0 50 25 86 55 35 30 68 55 73 55 14 0 62 25 62 32 0 4 -4 18 -9
31 -11 28 10 67 35 67 8 0 14 9 14 21 0 11 12 36 26 55 20 26 34 34 58 34 38
0 43 3 86 62 19 26 50 54 68 63 18 9 51 34 75 55 45 42 52 46 62 30z m-1725
-9 c0 -6 -4 -13 -10 -16 -5 -3 -10 1 -10 9 0 9 5 16 10 16 6 0 10 -4 10 -9z
m2241 -20 c36 -9 73 -22 83 -30 10 -8 41 -13 81 -13 36 0 65 -4 65 -9 0 -5 8
-9 19 -9 10 0 24 -6 30 -14 16 -19 -7 -58 -30 -51 -9 3 -22 -1 -29 -10 -14
-17 -67 -20 -72 -4 -2 7 -37 11 -92 11 l-88 -1 -43 45 c-43 43 -45 51 -29 103
3 8 11 10 22 6 9 -4 47 -15 83 -24z m1020 2 c-8 -15 -10 -15 -11 -2 0 17 10
32 18 25 2 -3 -1 -13 -7 -23z m-3808 -6 c67 -29 65 -33 -58 -155 -113 -113
-114 -113 -152 -106 -21 4 -44 11 -51 17 -6 5 -25 7 -42 4 -58 -12 -37 26 38
69 18 10 47 42 63 69 40 68 49 79 84 98 37 20 76 21 118 4z m-771 -52 c4 -54
1 -65 -18 -65 -21 0 -28 45 -13 80 19 41 26 38 31 -15z m2868 20 c0 -8 -4 -15
-10 -15 -5 0 -10 7 -10 15 0 8 5 15 10 15 6 0 10 -7 10 -15z m1380 0 c0 -8
-80 -78 -104 -92 -26 -15 -103 -14 -116 1 -6 8 1 16 23 25 18 8 50 23 72 34
54 26 125 45 125 32z m-4213 -57 c-2 -13 -4 -5 -4 17 -1 22 1 32 4 23 2 -10 2
-28 0 -40z m1026 10 c-3 -24 -16 -65 -29 -92 -14 -29 -26 -78 -30 -122 -6 -69
-8 -74 -35 -83 -16 -5 -29 -15 -29 -20 0 -18 -17 -13 -63 19 -37 25 -55 30
-104 30 -54 0 -62 3 -92 34 l-32 33 52 49 c29 27 81 77 116 111 40 40 68 60
78 57 17 -7 18 -13 6 -33 -10 -16 6 -71 20 -71 5 0 14 10 18 23 9 22 9 22 20
-7 l12 -29 25 24 c18 17 23 30 19 46 -6 26 20 73 40 73 10 0 12 -12 8 -42z
m3247 -27 c-8 -30 -16 -41 -30 -41 -11 0 -20 4 -20 10 0 8 25 57 48 95 12 19
13 -23 2 -64z m220 52 c0 -10 -21 -31 -45 -48 -25 -16 -45 -33 -45 -37 0 -5
-7 -8 -15 -8 -28 0 -14 25 38 68 56 46 67 50 67 25z m239 5 c-1 -26 -45 -93
-62 -96 -24 -5 -21 15 8 44 14 14 25 31 25 38 0 7 3 16 7 19 11 11 23 8 22 -5z
m-3351 -30 c2 -15 -14 -70 -35 -124 -40 -104 -58 -121 -116 -108 -22 5 -34 17
-52 56 -24 52 -24 78 1 78 8 0 14 10 14 24 0 14 5 28 11 31 5 4 14 18 20 32 5
13 14 21 19 18 6 -3 13 1 16 10 5 13 18 15 63 13 53 -3 56 -5 59 -30z m1220
-6 c-13 -10 -23 -11 -30 -4 -6 6 -2 15 13 26 17 12 25 13 30 4 5 -7 -1 -18
-13 -26z m1337 28 c-3 -5 -15 -10 -26 -10 -10 0 -19 5 -19 10 0 6 12 10 26 10
14 0 23 -4 19 -10z m-2806 -33 c-12 -21 -55 -67 -65 -67 -14 0 0 34 27 65 33
37 57 39 38 2z m2251 16 c11 -10 20 -25 20 -35 0 -14 -6 -16 -32 -11 -18 3
-44 10 -58 15 l-25 10 24 19 c29 24 45 24 71 2z m-1760 -21 c0 -33 -41 -94
-91 -136 l-33 -28 -23 26 c-15 18 -23 40 -23 66 0 32 5 42 33 61 17 13 33 26
35 30 1 3 25 7 52 8 49 1 50 1 50 -27z m2343 -71 c16 -2 6 -17 -20 -28 -47
-19 -103 -24 -103 -8 0 35 11 42 63 40 29 -2 55 -3 60 -4z m574 -13 c-3 -8 -6
-5 -6 6 -1 11 2 17 5 13 3 -3 4 -12 1 -19z m228 0 c8 -36 0 -59 -28 -88 -40
-40 -115 -91 -120 -83 -5 9 67 130 100 168 28 31 41 32 48 3z m-4691 -47 c11
-49 7 -55 -28 -42 -21 9 -26 17 -26 45 0 32 13 47 35 42 6 -1 14 -21 19 -45z
m988 -68 c12 -13 15 -29 11 -60 -5 -41 -6 -42 -26 -28 -12 8 -29 15 -39 15
-27 0 -24 91 4 150 l22 45 6 -52 c3 -28 13 -60 22 -70z m3139 107 c25 -14 24
-30 -6 -59 -14 -13 -25 -31 -25 -40 0 -18 -56 -81 -71 -81 -5 0 -9 8 -9 18 0
10 -5 23 -11 29 -6 6 -12 29 -13 51 -3 39 -1 43 38 66 45 28 68 31 97 16z
m-2781 -54 c6 -19 16 -37 23 -39 9 -3 9 -9 -1 -23 -7 -11 -15 -27 -18 -36 -8
-24 -23 -23 -50 3 -24 22 -24 20 11 117 8 22 23 13 35 -22z m-1280 14 c0 -5
-4 -10 -10 -10 -5 0 -10 5 -10 10 0 6 5 10 10 10 6 0 10 -4 10 -10z m3645 0
c8 -13 -20 -24 -41 -16 -20 8 -9 26 16 26 10 0 22 -5 25 -10z m245 -46 l0 -37
-74 6 c-40 4 -80 9 -90 13 -28 11 -17 24 22 25 20 0 55 6 77 14 61 20 65 19
65 -21z m400 19 c0 -5 -21 -31 -48 -58 -26 -28 -66 -72 -90 -98 -32 -36 -48
-46 -63 -42 -25 8 -24 16 4 48 12 14 30 37 40 51 10 14 32 33 50 42 18 9 34
20 37 24 4 6 59 38 68 40 1 0 2 -3 2 -7z m165 -3 c3 -5 -5 -26 -19 -47 -13
-21 -28 -59 -31 -85 -7 -50 -22 -60 -45 -33 -20 24 -5 81 36 130 37 46 48 52
59 35z m-2388 -86 c4 -11 -21 -21 -71 -31 -19 -3 -56 22 -56 39 0 14 123 5
127 -8z m283 -2 c0 -11 -18 -25 -52 -41 -29 -13 -62 -32 -73 -41 -23 -21 -95
-38 -95 -22 0 16 149 99 218 121 1 1 2 -7 2 -17z m-1880 -18 c0 -8 -7 -14 -15
-14 -8 0 -15 9 -15 20 0 13 5 18 15 14 8 -4 15 -12 15 -20z m3850 -3 c0 -11 3
-26 6 -35 8 -21 -29 -22 -46 -1 -10 13 -10 19 5 35 23 25 35 25 35 1z m-3649
-23 c7 -13 20 -29 31 -36 16 -12 17 -16 3 -41 -14 -27 -11 -41 7 -41 4 0 8 7
8 15 0 9 8 14 23 12 19 -2 22 2 19 29 -2 24 2 33 23 42 38 17 54 15 66 -10 21
-47 35 -64 47 -60 24 8 11 -39 -20 -73 -32 -34 -34 -35 -65 -23 -24 9 -33 19
-33 36 0 21 -3 23 -32 17 -42 -9 -44 -11 -28 -30 9 -11 10 -19 3 -26 -12 -12
-76 11 -105 38 -14 12 -23 13 -45 5 -32 -12 -64 -19 -119 -27 -21 -3 -62 -13
-91 -21 -68 -19 -113 -18 -113 1 0 8 7 15 15 15 8 0 46 30 85 67 39 37 86 76
105 87 31 18 36 18 66 3 24 -11 36 -26 44 -53 18 -64 35 -54 35 19 0 35 3 67
7 70 15 15 53 6 64 -15z m1087 1 c3 -17 -6 -19 -140 -35 -53 -6 -58 -5 -58 13
0 26 39 38 124 38 57 0 71 -3 74 -16z m-726 -26 c34 -37 62 -82 55 -89 -3 -3
-31 0 -63 8 -50 11 -59 17 -71 45 -19 47 -17 56 12 49 14 -4 25 -2 25 4 0 17
15 11 42 -17z m195 -19 c73 -7 117 -27 145 -65 13 -17 31 -29 45 -29 13 0 23
-5 23 -11 0 -13 -123 -4 -195 14 -38 10 -55 21 -72 47 -23 33 -31 66 -14 56 5
-4 36 -9 68 -12z m3016 -30 c17 -10 55 -17 84 -17 l53 0 0 -34 c0 -26 7 -41
26 -56 l26 -20 -33 -18 c-49 -26 -68 -24 -80 9 -10 29 -81 82 -110 82 -27 0
-42 25 -29 49 13 25 22 26 63 5z m305 -7 c9 -10 7 -19 -4 -35 -19 -28 -25 -27
-57 1 -35 29 -34 35 6 40 17 2 35 5 38 5 4 1 11 -4 17 -11z m-2684 -7 c-11
-11 -84 -24 -84 -16 0 4 9 10 19 14 28 10 75 12 65 2z m-802 -52 c32 -7 58
-17 58 -23 0 -23 -162 -54 -188 -37 -10 7 -9 15 5 40 20 36 35 38 125 20z
m215 -36 c12 -7 29 -12 38 -12 34 0 7 -25 -50 -47 -33 -13 -63 -23 -67 -23
-15 0 -8 30 12 50 11 11 17 26 14 35 -7 18 18 16 53 -3z m1623 8 c0 -5 -4 -10
-10 -10 -5 0 -10 5 -10 10 0 6 5 10 10 10 6 0 10 -4 10 -10z m300 -10 c25 -16
-2 -29 -44 -22 -53 9 -60 32 -9 32 21 0 45 -5 53 -10z m-130 -10 c0 -5 -5 -10
-11 -10 -5 0 -7 5 -4 10 3 6 8 10 11 10 2 0 4 -4 4 -10z m1167 -22 c31 -29 29
-48 -5 -48 -16 0 -32 -3 -36 -7 -15 -16 -136 -29 -136 -15 0 5 26 18 58 28 39
13 60 26 67 42 12 28 23 28 52 0z m-2382 -8 c7 -21 -27 -59 -52 -60 -17 0 -16
5 3 46 18 38 39 44 49 14z m1459 -3 c12 -18 0 -47 -22 -55 -17 -5 -31 30 -21
56 10 26 27 25 43 -1z m-2490 -27 c-3 -8 -9 -35 -12 -58 -4 -33 -10 -46 -28
-54 -13 -6 -24 -15 -24 -20 0 -5 -4 -7 -8 -4 -11 6 3 129 17 155 9 16 14 18
36 8 16 -8 23 -17 19 -27z m3716 5 c0 -7 -7 -18 -15 -25 -13 -11 -15 -7 -15
25 0 32 2 36 15 25 8 -7 15 -18 15 -25z m-2508 -12 c15 -15 28 -33 28 -40 0
-8 7 -16 16 -20 9 -3 13 -12 9 -21 -3 -8 0 -19 6 -23 12 -7 15 -61 4 -79 -15
-24 -48 -3 -103 66 -17 23 -32 45 -32 48 0 3 18 9 40 12 56 9 50 24 -10 24
-57 0 -66 16 -22 42 35 22 31 23 64 -9z m-1092 7 c0 -6 -13 -19 -30 -28 -16
-9 -30 -20 -30 -24 0 -5 -4 -8 -10 -8 -16 0 -12 32 7 52 17 19 63 25 63 8z
m164 4 c35 -13 14 -29 -41 -31 -31 -2 -66 -6 -76 -9 -14 -4 -18 -2 -15 7 8 23
99 46 132 33z m658 -11 c6 -24 -1 -53 -13 -53 -5 0 -9 16 -9 35 0 36 15 48 22
18z m-252 -12 c0 -5 -14 -12 -31 -16 -31 -7 -109 -37 -142 -56 -10 -5 -29 -14
-43 -19 -22 -9 -23 -8 -15 8 16 29 55 57 81 58 14 1 43 9 65 17 45 18 85 22
85 8z m818 -40 c-2 -4 -23 -2 -48 4 l-45 11 29 16 c27 14 30 14 48 -4 11 -11
18 -23 16 -27z m142 42 c-1 -21 -13 -53 -21 -53 -10 0 -12 43 -2 53 9 9 23 9
23 0z m1024 -9 c20 -8 21 -33 1 -41 -16 -5 -55 22 -55 39 0 9 31 11 54 2z
m956 -20 c0 -19 -31 -74 -42 -74 -4 0 -8 -6 -8 -14 0 -7 -10 -24 -22 -38 -13
-14 -33 -38 -45 -54 -20 -26 -23 -27 -33 -11 -6 9 -20 17 -30 17 -10 0 -22 5
-26 11 -7 13 88 109 108 109 8 0 20 11 26 25 7 14 22 30 34 35 33 13 38 12 38
-6z m-130 -19 c-7 -9 -15 -13 -17 -11 -7 7 7 26 19 26 6 0 6 -6 -2 -15z m235
-24 c9 -54 -37 -207 -65 -216 -11 -4 -20 -12 -20 -18 0 -15 -69 -97 -81 -97
-14 0 -10 49 7 88 29 70 109 227 122 240 6 7 12 20 12 28 0 30 19 12 25 -25z
m-1223 -3 c-7 -7 -12 -8 -12 -2 0 14 12 26 19 19 2 -3 -1 -11 -7 -17z m-1418
-7 c3 -4 3 -11 0 -14 -8 -7 -44 4 -44 14 0 12 37 12 44 0z m1344 -13 c3 -13
-3 -17 -25 -16 -15 0 -38 -3 -50 -7 -25 -8 -32 12 -12 32 17 17 83 11 87 -9z
m902 13 c0 -12 -139 -105 -146 -98 -10 9 39 50 101 84 46 26 45 26 45 14z
m-1565 -27 c0 -13 -9 -20 -25 -22 -14 -2 -29 -8 -35 -12 -15 -12 -144 -50
-169 -50 -24 0 -71 54 -61 70 3 6 30 10 59 10 28 0 56 4 62 9 11 11 72 18 129
15 32 -1 40 -6 40 -20z m1380 9 c-4 -10 -8 -22 -9 -28 -7 -34 -19 -53 -39 -63
-12 -7 -49 -27 -82 -45 l-60 -34 -5 -70 c-5 -69 -5 -70 -65 -133 -33 -35 -71
-73 -84 -84 -13 -12 -34 -31 -45 -44 -43 -48 -108 -94 -133 -94 -33 0 -44 18
-37 62 8 49 -10 87 -49 106 -31 15 -35 15 -70 -5 -21 -12 -53 -21 -73 -21 -32
0 -34 2 -24 21 13 23 5 69 -11 69 -6 0 -29 -15 -52 -33 -48 -39 -64 -46 -132
-57 -38 -6 -58 -4 -83 7 -31 15 -34 14 -47 -3 -8 -11 -15 -35 -15 -54 0 -20
-7 -46 -16 -58 l-15 -22 -30 22 c-35 26 -71 101 -67 138 3 24 7 25 95 35 51 6
98 16 105 23 6 6 18 12 25 12 30 0 98 78 117 134 l19 56 56 2 c31 0 61 2 66 3
23 5 85 36 85 43 0 4 12 13 27 20 25 11 29 10 43 -9 l16 -20 65 22 c35 12 99
24 142 27 l79 5 -22 -44 c-12 -24 -32 -54 -43 -66 -17 -19 -18 -23 -4 -23 13
0 77 80 77 96 0 3 11 20 25 39 18 23 32 31 45 28 11 -3 34 0 52 7 18 7 44 14
59 16 14 2 38 10 55 19 41 21 68 20 59 -2z m-875 -17 c0 -24 -31 -47 -58 -44
-38 5 -38 26 0 43 42 18 58 19 58 1z m-807 -47 c10 -23 16 -43 14 -45 -2 -2
-30 -7 -62 -10 -72 -7 -135 10 -128 35 6 22 58 49 103 54 19 2 40 5 45 5 6 1
18 -17 28 -39z m-803 -22 c-78 -74 -139 -119 -150 -112 -15 9 24 51 55 59 14
4 25 16 29 32 4 15 13 32 20 40 14 13 78 34 86 27 2 -2 -16 -23 -40 -46z m133
-14 c-17 -43 -17 -43 17 -43 17 0 30 -4 30 -10 0 -5 -7 -10 -15 -10 -8 0 -15
-4 -15 -8 0 -5 -18 -15 -41 -22 -45 -15 -75 -50 -65 -76 9 -23 76 -13 112 15
15 12 33 21 40 21 8 0 14 5 14 10 0 6 8 10 19 10 10 0 24 7 31 15 7 9 29 15
51 15 22 0 47 4 57 9 9 5 35 17 57 27 22 11 44 25 48 32 14 22 41 13 65 -22
17 -25 30 -33 47 -31 16 1 37 -9 60 -30 51 -48 145 -74 221 -64 34 5 68 5 79
0 11 -5 27 -11 36 -14 11 -4 15 -13 12 -29 -7 -35 15 -47 85 -49 61 -2 79 -11
45 -23 -30 -10 -162 -83 -206 -113 -70 -47 -130 -127 -141 -186 -5 -27 -14
-41 -32 -49 -13 -6 -24 -15 -24 -19 0 -8 -30 -26 -89 -55 -30 -13 -37 -14 -45
-2 -11 14 -46 13 -46 -1 0 -8 -54 -36 -56 -29 -1 1 -10 -4 -20 -14 -23 -19
-50 -24 -86 -14 -31 9 -40 35 -25 75 9 24 7 33 -12 59 -21 31 -21 74 0 88 13
8 11 40 -4 52 -9 8 -25 7 -58 -5 -25 -9 -53 -14 -62 -10 -16 6 -16 10 3 47 32
63 4 118 -47 91 -54 -28 -127 -51 -166 -51 -40 0 -45 -3 -60 -35 -19 -40 -22
-75 -7 -75 6 0 10 -6 10 -12 0 -15 -60 -58 -79 -58 -21 0 -4 65 40 154 21 44
39 87 39 97 0 9 16 36 35 59 28 33 35 51 35 84 0 53 -16 76 -57 79 -39 2 -42
14 -9 27 13 5 28 15 33 23 4 8 40 42 78 75 57 50 71 58 76 44 3 -9 0 -31 -8
-49z m1251 47 l39 -19 -59 -27 c-33 -14 -76 -28 -97 -31 -32 -5 -36 -3 -31 11
3 9 10 16 14 16 4 0 27 16 51 35 24 19 44 35 44 35 1 0 18 -9 39 -20z m1566 0
c0 -5 -5 -10 -11 -10 -5 0 -7 5 -4 10 3 6 8 10 11 10 2 0 4 -4 4 -10z m-2600
-7 c-1 -10 -66 -43 -85 -43 -12 0 -11 4 4 19 27 27 81 43 81 24z m858 -4 c-2
-6 -33 -26 -68 -45 -52 -27 -77 -34 -122 -34 -31 0 -60 5 -63 10 -3 6 4 10 17
10 13 0 28 4 34 10 5 5 45 19 89 30 43 11 81 22 83 25 10 10 34 5 30 -6z
m1412 -58 c0 -23 27 -33 97 -36 72 -3 81 -9 88 -52 3 -21 11 -61 17 -89 12
-58 -2 -139 -31 -175 l-16 -20 -44 24 c-39 22 -45 30 -48 64 -6 79 -15 106
-40 129 -14 13 -35 24 -45 24 -36 0 -128 31 -128 43 0 13 73 77 88 77 5 0 15
7 22 15 17 21 40 19 40 -4z m285 -18 c-3 -15 -14 -43 -22 -62 -15 -32 -17 -34
-20 -13 -5 25 26 102 40 102 5 0 6 -12 2 -27z m-1346 -10 c-1 -28 -22 -77 -45
-106 -24 -29 -98 -72 -144 -82 -26 -6 -31 -3 -40 19 -5 14 -17 26 -27 27 -10
1 -25 2 -33 3 -8 2 -23 3 -32 4 -12 1 -18 10 -18 25 0 48 131 107 254 113 32
2 61 6 64 9 11 11 22 4 21 -12z m-629 -44 c0 -10 -31 -20 -41 -13 -17 10 -9
22 16 20 14 0 25 -4 25 -7z m253 4 c4 -3 -2 -13 -14 -21 -23 -16 -34 -10 -26
13 7 15 28 20 40 8z m-439 -9 c25 -10 19 -26 -6 -19 -31 10 -47 25 -26 25 9 0
23 -3 32 -6z m-1184 -27 c0 -26 -42 -55 -96 -67 -35 -8 -47 3 -16 14 41 15 75
40 79 57 7 27 33 24 33 -4z m2840 1 c0 -41 6 -43 142 -72 14 -3 40 -18 57 -32
29 -24 31 -30 31 -94 0 -66 1 -69 36 -97 l36 -29 -21 -34 c-25 -42 -26 -63 -4
-100 22 -38 7 -56 -52 -59 -26 -1 -58 -6 -71 -11 -35 -14 -78 -12 -92 2 -10
10 -19 8 -42 -5 -31 -19 -50 -16 -50 8 0 16 -43 31 -59 21 -14 -9 -41 4 -41
19 0 8 12 27 26 44 25 30 25 51 0 51 -8 0 -42 -27 -77 -60 -35 -33 -72 -63
-81 -66 -10 -3 -18 -9 -18 -14 0 -5 -15 -11 -32 -15 -18 -4 -52 -15 -75 -26
-24 -10 -51 -19 -61 -19 -9 0 -34 -11 -54 -25 -20 -14 -44 -25 -52 -25 -8 0
-19 -6 -23 -14 -21 -35 -106 -50 -117 -19 -4 10 3 26 19 43 26 28 33 64 13 76
-15 10 -199 5 -213 -5 -5 -5 -34 -16 -62 -25 -29 -10 -55 -22 -58 -27 -4 -5
-14 -9 -24 -9 -10 0 -29 -8 -42 -19 -13 -10 -46 -31 -74 -46 -98 -53 -137 -87
-148 -130 -4 -15 -5 -14 -6 8 0 15 -10 36 -21 47 -19 19 -19 19 18 50 20 16
40 30 45 30 4 0 40 26 79 58 94 77 113 88 185 114 62 23 76 39 66 77 -7 28
-64 34 -81 10 -7 -11 -22 -19 -33 -19 -17 0 -18 3 -9 20 6 11 17 20 25 20 7 0
13 8 13 18 0 9 4 29 10 44 13 32 69 47 108 29 36 -16 71 -14 78 5 4 12 13 14
29 9 77 -23 91 -24 133 -4 80 36 98 25 107 -65 10 -98 44 -113 152 -65 53 23
145 103 145 126 0 7 7 16 15 19 8 4 15 11 15 18 0 6 36 49 80 95 65 68 80 90
80 116 0 31 24 75 41 75 5 0 9 -10 9 -22z m-1360 -24 c0 -2 -9 -4 -21 -4 -11
0 -18 4 -14 10 5 8 35 3 35 -6z m-1080 -65 c-16 -29 -32 -34 -47 -14 -7 11
-13 22 -13 26 0 10 30 16 52 11 14 -3 15 -8 8 -23z m-862 9 c-2 -6 -13 -16
-24 -22 -10 -6 -21 -14 -24 -17 -12 -13 -381 -192 -386 -187 -9 9 88 178 101
178 7 0 20 10 31 21 l19 21 5 -33 c4 -26 10 -35 28 -37 13 -2 30 2 39 9 16 14
135 59 165 63 10 1 21 5 24 9 12 11 26 8 22 -5z m762 -43 c16 -16 30 -34 30
-40 0 -6 -16 -27 -36 -46 -20 -18 -47 -56 -60 -82 -22 -43 -24 -53 -14 -83 28
-85 24 -105 -36 -180 -21 -26 -50 -47 -81 -59 -26 -10 -59 -25 -73 -33 -38
-23 -150 -134 -166 -164 -16 -31 -19 -68 -5 -68 5 0 16 -3 24 -6 8 -3 34 12
61 35 59 51 136 87 148 69 20 -29 -26 -159 -62 -178 -15 -8 -22 -3 -39 26 -20
34 -24 36 -54 28 -18 -4 -60 -9 -95 -10 -49 -2 -72 -8 -103 -28 -51 -34 -58
-33 -52 12 4 28 0 41 -14 54 -18 16 -22 15 -78 -17 -136 -77 -315 -156 -315
-139 0 2 11 25 24 51 55 108 57 132 13 174 -18 17 -30 20 -69 15 -27 -3 -48
-2 -48 2 0 3 41 45 90 93 77 73 90 91 90 118 0 27 -5 34 -36 47 -20 8 -44 12
-53 9 -31 -12 -141 -33 -141 -26 1 6 85 61 163 105 26 15 47 31 47 37 0 6 4 8
9 4 5 -3 12 -1 16 4 6 10 108 71 119 71 3 0 6 -6 6 -14 0 -15 40 -12 79 7 26
13 107 14 157 2 25 -5 40 -1 72 19 22 14 43 29 46 35 3 5 14 7 24 4 10 -2 24
3 31 11 8 9 19 16 25 16 7 0 23 11 35 24 13 13 34 27 47 30 13 4 24 13 24 21
0 8 9 15 20 15 10 0 24 9 30 20 16 30 54 45 115 45 46 -1 59 -5 85 -30z m1365
-139 c9 -68 14 -81 38 -101 l29 -22 -30 -22 c-52 -37 -92 -20 -92 38 0 13 -6
21 -17 21 -15 0 -112 -56 -123 -72 -6 -8 -98 -48 -111 -48 -6 0 -25 15 -44 33
l-34 33 42 41 c34 34 119 83 141 83 4 0 15 9 26 20 11 11 28 20 38 20 9 1 35
14 57 30 60 43 68 37 80 -54z m-1915 39 c0 -8 -6 -15 -12 -16 -37 -2 -66 -11
-89 -28 -30 -22 -106 -40 -95 -23 3 6 22 16 41 22 19 6 40 20 45 30 9 17 28
22 93 28 9 1 17 -5 17 -13z m3605 -35 c-3 -6 -10 -10 -16 -10 -10 0 -12 33 -2
44 9 9 26 -22 18 -34z m-3985 -41 c-4 -45 -9 -54 -35 -68 -17 -9 -44 -26 -60
-39 l-29 -23 -13 23 c-17 32 -16 44 9 82 19 29 113 88 128 80 3 -1 3 -26 0
-55z m355 11 c3 -5 1 -10 -4 -10 -6 0 -11 5 -11 10 0 6 2 10 4 10 3 0 8 -4 11
-10z m3603 -11 c-2 -6 -8 -10 -13 -10 -5 0 -11 4 -13 10 -2 6 4 11 13 11 9 0
15 -5 13 -11z m-3018 -15 c0 -3 -7 -12 -15 -20 -12 -13 -15 -13 -15 -1 0 7 3
17 7 20 8 8 23 9 23 1z m267 -68 c-1 -35 1 -67 4 -71 4 -3 28 -7 54 -8 44 -2
48 -4 59 -38 12 -35 11 -39 -17 -69 -17 -18 -31 -46 -34 -68 l-5 -37 43 -3
c24 -1 48 -7 53 -11 6 -5 44 -16 85 -25 66 -15 76 -15 97 -1 13 8 39 15 59 15
41 0 130 46 182 94 73 66 116 74 137 24 8 -18 17 -41 20 -52 8 -24 47 -15 96
22 28 21 46 27 87 27 29 0 53 -2 53 -5 0 -3 -16 -16 -36 -29 -19 -14 -42 -37
-50 -53 -8 -15 -18 -28 -22 -28 -4 0 -13 -14 -20 -30 -9 -19 -24 -32 -40 -36
-15 -3 -51 -15 -80 -25 -29 -10 -61 -19 -72 -19 -10 0 -31 -6 -47 -14 -39 -19
-324 -113 -368 -121 -26 -4 -180 -70 -245 -104 -9 -5 -31 -12 -50 -16 -19 -4
-41 -12 -48 -18 -7 -5 -42 -25 -78 -43 l-65 -33 -9 23 c-5 13 -20 26 -34 30
-36 9 -33 28 15 92 22 30 47 72 56 92 8 20 21 51 28 67 61 141 46 305 -27 305
-65 0 -14 61 55 66 41 3 57 22 57 64 0 30 6 41 28 56 26 17 74 44 79 44 2 0 2
-29 0 -64z m-1370 22 c0 -7 3 -28 7 -46 7 -29 5 -34 -24 -50 -18 -9 -54 -32
-81 -49 -27 -18 -51 -33 -54 -33 -12 0 -3 17 23 47 54 63 72 85 72 91 0 8 42
52 50 52 4 0 7 -6 7 -12z m3973 -53 c0 -8 -4 -15 -10 -15 -5 0 -10 7 -10 15 0
8 5 15 10 15 6 0 10 -7 10 -15z m-495 -134 c3 -6 -4 -15 -15 -21 -11 -6 -20
-7 -20 -3 0 4 -4 3 -8 -3 -9 -15 -67 -44 -87 -44 -30 0 -14 16 47 48 67 35 74
37 83 23z m-3378 -35 c7 -7 -99 -116 -112 -116 -4 0 -13 -6 -21 -14 -7 -8 -25
-23 -38 -34 -14 -10 -33 -34 -44 -53 -13 -25 -32 -38 -68 -51 -77 -28 -83 -21
-31 33 43 44 117 143 117 155 0 13 87 74 105 74 7 0 16 4 19 8 6 10 63 8 73
-2z m1033 -23 c60 -41 64 -86 19 -199 -45 -113 -70 -148 -61 -84 9 63 -7 119
-49 162 -21 23 -39 50 -39 60 0 23 44 65 73 71 12 2 24 5 27 6 3 0 17 -7 30
-16z m1755 -3 c3 -5 1 -10 -4 -10 -6 0 -11 5 -11 10 0 6 2 10 4 10 3 0 8 -4
11 -10z m-75 -10 c0 -5 -4 -10 -10 -10 -5 0 -10 5 -10 10 0 6 5 10 10 10 6 0
10 -4 10 -10z m-105 -41 c-10 -15 -25 -10 -19 6 4 8 10 12 15 9 5 -3 7 -10 4
-15z m-1735 -114 c7 -9 19 -14 27 -11 8 3 19 -8 29 -32 15 -35 15 -39 -6 -78
-11 -22 -52 -69 -90 -103 -52 -48 -71 -72 -76 -98 -7 -38 13 -62 53 -63 30 0
33 -8 20 -63 -9 -40 -8 -49 7 -66 16 -18 15 -20 -14 -45 -26 -21 -42 -26 -88
-26 -54 0 -203 -29 -267 -51 -16 -6 -49 -15 -73 -20 -23 -4 -59 -20 -79 -34
-21 -14 -52 -25 -68 -25 -17 0 -50 -9 -74 -21 -35 -16 -45 -18 -58 -8 -16 14
-80 13 -119 -1 -32 -13 -43 10 -20 45 18 27 17 27 -26 76 -20 21 -49 24 -94
10 -126 -40 -144 -44 -159 -31 -19 16 -19 54 0 70 8 7 15 18 15 25 0 11 52 73
131 156 13 13 28 16 62 12 27 -3 47 -1 51 6 4 6 15 11 26 11 10 0 20 7 24 15
3 8 12 15 19 15 8 0 26 11 41 25 25 23 77 55 91 55 3 0 5 -9 5 -19 0 -52 35
-60 114 -27 49 20 46 21 46 -13 0 -26 3 -28 33 -26 45 4 44 4 59 18 17 18 134
97 142 97 3 0 6 -11 6 -25 0 -28 25 -45 66 -45 15 0 60 17 101 38 56 28 75 43
79 62 3 14 12 49 20 77 10 34 13 67 9 93 -5 32 -4 40 8 40 8 0 20 -7 27 -15z
m-900 -121 c0 -28 -16 -31 -42 -7 -23 20 -23 30 0 35 28 7 42 -3 42 -28z m982
-87 c-12 -13 -22 -28 -22 -33 0 -6 -15 -25 -34 -43 -23 -23 -36 -29 -41 -21
-5 8 15 34 51 69 57 55 90 75 46 28z m688 -16 c0 -12 -46 -41 -64 -41 -8 0
-16 -3 -18 -7 -1 -5 -31 -27 -65 -51 -50 -34 -72 -43 -116 -46 -30 -2 -80 -10
-111 -17 -76 -17 -97 0 -37 31 23 11 45 28 48 36 3 10 13 14 25 11 11 -3 51 8
91 25 39 16 87 30 106 30 20 0 41 4 46 8 9 7 67 27 88 29 4 1 7 -3 7 -8z m510
-101 c13 -8 12 -11 -5 -24 -36 -27 -53 -19 -39 18 7 18 22 20 44 6z m-930
-149 c0 -5 -15 -14 -34 -21 -18 -6 -41 -19 -51 -29 -9 -11 -27 -22 -41 -25
-13 -4 -24 -11 -24 -16 0 -6 -6 -10 -14 -10 -7 0 -25 -9 -39 -20 -32 -26 -37
-25 -66 11 l-24 31 28 24 c16 14 40 23 59 23 17 0 63 9 101 20 80 22 105 25
105 12z m90 -4 c0 -8 -26 -31 -57 -53 -32 -21 -61 -42 -64 -46 -20 -29 -77
-58 -111 -58 -21 0 -38 4 -38 9 0 10 55 41 74 41 6 1 27 14 46 30 19 17 39 30
45 30 5 0 28 14 49 30 44 33 56 37 56 17z m-1665 -168 c0 -19 -6 -25 -27 -27
-33 -4 -34 0 -12 34 20 30 39 27 39 -7z m1425 -19 c0 -5 -4 -10 -10 -10 -5 0
-10 5 -10 10 0 6 5 10 10 10 6 0 10 -4 10 -10z m-85 -10 c-3 -5 -11 -10 -16
-10 -6 0 -7 5 -4 10 3 6 11 10 16 10 6 0 7 -4 4 -10z m-1077 -32 c7 -35 -76
-103 -160 -131 -28 -10 -43 18 -24 45 9 12 16 37 16 55 0 19 5 33 13 34 27 1
81 9 84 13 2 1 18 3 36 2 21 -1 33 -7 35 -18z m132 -88 c0 -4 -28 -19 -62 -34
-35 -16 -70 -34 -78 -41 -17 -15 -91 -32 -75 -18 41 38 101 76 137 87 45 14
78 16 78 6z m520 -100 c0 -23 -111 -120 -178 -156 -25 -14 -49 -29 -53 -35 -3
-6 -22 -11 -40 -12 -32 -2 -34 0 -37 34 -3 32 2 40 35 66 37 28 53 36 183 87
72 28 90 31 90 16z"/>
<path d="M2656 4773 c-4 -5 -11 -8 -14 -8 -4 -1 -20 -4 -35 -8 -46 -12 -20
-29 34 -22 40 5 49 4 49 -9 0 -12 10 -16 34 -16 40 0 50 11 42 46 -6 21 -12
24 -55 24 -26 0 -51 -3 -55 -7z"/>
<path d="M3089 4133 c-12 -15 -12 -16 4 -10 10 4 25 7 33 7 8 0 14 5 14 10 0
16 -36 11 -51 -7z"/>
<path d="M2940 3760 c0 -5 5 -10 11 -10 5 0 7 5 4 10 -3 6 -8 10 -11 10 -2 0
-4 -4 -4 -10z"/>
<path d="M1160 3250 c0 -16 7 -20 35 -20 42 0 45 10 8 28 -37 16 -43 15 -43
-8z"/>
<path d="M1391 4524 c0 -11 3 -14 6 -6 3 7 2 16 -1 19 -3 4 -6 -2 -5 -13z"/>
<path d="M1220 4361 c0 -6 5 -13 10 -16 6 -3 10 1 10 9 0 9 -4 16 -10 16 -5 0
-10 -4 -10 -9z"/>
</g>
</svg>
